<svg width="144" height="38" viewBox="0 0 144 38" fill="none" xmlns="http://www.w3.org/2000/svg">
<path d="M14.6346 27.6323C14.6346 29.4254 16.0322 30.7151 17.874 30.7151C19.7157 30.7151 21.001 29.483 21.001 27.8001V25.6138H28.1511V29.0321C28.1511 34.1334 24.3527 38 19.2141 38H17.0928C10.2223 38 6.31153 34.9172 6.31153 26.7908V14.4047H0V7.4553H6.36639V0H14.632V7.4553H24.7419V14.4047H14.632V27.6323H14.6346Z" fill="#142954"/>
<path d="M74.535 27.6323C74.535 29.4254 75.9326 30.7151 77.7743 30.7151C79.6161 30.7151 80.9014 29.483 80.9014 27.8001V25.6138H88.0515V29.0321C88.0515 34.1334 84.2531 38 79.1145 38H76.9932C70.1227 38 66.2119 34.9172 66.2119 26.7908V14.4047H59.9004V7.4553H66.2668V0H74.5324V7.4553H84.6423V14.4047H74.5324V27.6323H74.535Z" fill="#142954"/>
<path d="M49.646 32.3876V32.2775C47.8356 36.5137 43.7237 38 41.0382 38C34.2382 38 30.3457 34.4794 30.3457 23.9702V7.46317H38.5695V22.9243C38.5695 28.5917 39.7216 30.8462 43.614 30.8462C47.5065 30.8462 49.4814 28.1487 49.4814 22.9243V7.46317H57.7052V37.3394H49.6983L49.6434 32.3876H49.646Z" fill="#142954"/>
<path d="M109.749 37.3944V32.0284C107.716 35.777 105.407 37.9292 100.626 37.9843C95.1326 38.0393 90.2422 35.1715 90.2422 29.3834C90.2422 22.5468 96.013 19.4587 103.868 19.4587H107.494C109.088 19.4587 109.691 18.7431 109.582 17.3642C109.362 14.6616 107.22 13.6156 104.691 13.6156C101.34 13.6156 98.8657 14.6091 98.8657 18.1926H91.504C91.4491 9.81194 98.2074 6.88907 105.02 6.88907C111.834 6.88907 117.273 9.81194 117.273 17.1991V37.3971H109.746L109.749 37.3944ZM109.584 24.9165H103.871C100.19 24.9165 98.5966 26.2403 98.7063 28.555C98.7612 30.6496 100.958 31.3128 103.542 31.3128C107.662 31.3128 109.587 28.7752 109.587 26.4055V24.9165H109.584Z" fill="#142954"/>
<path d="M123.146 13.4269V3.44453H119.518V0.0183411H130.586V3.44453H126.942V13.4269H123.146Z" fill="#142954"/>
<path d="M135.643 13.4085L131.43 0.0183105H135.51L137.679 6.99651L139.99 0.0183105H144L139.653 13.4085H135.643Z" fill="#142954"/>
</svg>
