<svg width="600" height="417" viewBox="0 0 600 417" fill="none" xmlns="http://www.w3.org/2000/svg">
<path d="M64.163 377.364C42.2024 365.136 34.7642 322.703 52.3018 270.731C65.2587 232.334 45.2357 198.213 46.725 153.188C51.1044 20.7791 306.486 -3.72024 447.033 64.2422C576.308 126.754 583.8 304.91 532.466 377.364C446.787 377.364 64.163 377.364 64.163 377.364Z" fill="url(#paint0_linear_3368_18140)"/>
<path d="M41.3301 377.135L549.923 377.608C551.146 377.609 552.136 378.689 552.136 380.022C552.136 381.356 551.143 382.437 549.919 382.436L41.3266 381.963C40.104 381.962 39.1133 380.881 39.1133 379.549C39.1135 378.215 40.1061 377.134 41.3301 377.135Z" fill="#A7CCF9"/>
<path d="M344.709 174.129C350.345 175.041 350.012 175.961 350.737 176.058C351.594 176.173 361.766 171.069 361.766 171.069C361.766 171.069 391.851 156.235 393.446 155.375L415.161 128.081L431.897 135.792C431.897 135.792 407.475 164.81 405.93 166.088C404.385 167.366 361.247 182.479 357.497 183.936C357.497 183.936 353.715 187.39 351.267 189.476C348.82 191.562 345.547 192.389 344.766 192.864C344.65 192.934 341.951 194.358 338.137 195.187C334.849 195.901 337.589 193.67 337.589 193.67C337.589 193.67 343.404 191.218 343.118 190.774C342.898 190.433 339.806 191.966 336.178 192.796C335.246 193.009 334.324 193.216 333.477 193.399C331.25 193.88 330.272 192.608 332.509 191.721C333.299 191.408 334.625 190.921 335.623 190.713C336.702 190.488 337.608 189.923 338.481 189.591C340.215 188.932 341.487 188.474 341.419 188.415C341.33 188.337 341.574 187.955 340.576 188.149C339.376 188.383 336.955 189.462 335.159 189.665C334.141 189.78 332.032 190.154 332.032 190.154C332.032 190.154 328.3 190.511 328.274 189.988C328.219 188.846 330.517 188.207 331.928 188.236C332.817 187.784 335.05 187.455 335.05 187.455C335.05 187.455 339.379 185.748 339.127 185.108C339.027 184.853 336.406 185.246 333.625 185.436C330.685 185.637 328.556 185.636 328.399 185.068C328.151 184.165 330.49 183.824 330.49 183.824C330.49 183.824 332.553 183.523 333.229 183.369C334.021 183.189 336.345 182.461 336.345 182.461C336.345 182.461 344.307 179.54 344.019 178.953C343.732 178.366 342.417 177.137 341.855 177.14C341.294 177.143 340.29 177.703 339.729 177.706C339.168 177.709 337.96 177.601 337.876 176.895C337.792 176.19 340.909 174.728 340.909 174.728C340.909 174.728 343.083 173.866 344.709 174.129Z" fill="#FFE7DE"/>
<path d="M400.051 144.985C400.051 144.985 405.468 149.902 407.722 151.521C409.595 152.866 418.724 157.259 418.724 157.259C418.724 157.259 427.805 143.365 431.777 136.399C436.594 127.946 439.93 115.376 438.791 115.036C435.595 114.079 431.198 113.494 427.137 115.356C413.085 121.799 400.051 144.985 400.051 144.985Z" fill="#0C2A57"/>
<path d="M349.97 181.389C347.559 181.769 345.094 181.312 344.026 179.106C343.785 181.722 347.753 183.019 349.97 181.389Z" fill="#FE875E"/>
<path d="M488.972 358.195C488.972 358.195 489.573 368.832 489.577 368.854C489.797 370.205 490.667 373.541 490.667 374.769C490.667 379.381 470.185 370.854 474.776 368.81C475.191 368.624 477.368 367.225 477.504 365.656C477.715 363.237 478.249 358.345 478.249 358.345L488.972 358.195Z" fill="#FFE7DE"/>
<path d="M474.579 368.855C474.579 368.855 479.387 370.266 481.85 370.619C484.313 370.971 487.56 368.002 489.302 368.804C491.22 369.687 491.145 377.635 491.145 377.635C491.145 377.635 465.357 379.898 458.106 377.557C455.234 376.629 464.748 372.142 474.579 368.855Z" fill="#6AABF5"/>
<path d="M523.081 358.509C523.081 358.509 523.682 369.146 523.686 369.168C523.906 370.518 524.777 373.855 524.777 375.082C524.777 379.694 504.295 371.167 508.885 369.124C509.3 368.938 512.122 366.495 512.259 364.924C512.47 362.506 512.358 358.658 512.358 358.658L523.081 358.509Z" fill="#FFE7DE"/>
<path d="M508.939 369.079C508.939 369.079 513.748 370.49 516.211 370.843C518.673 371.196 521.92 368.225 523.662 369.028C525.58 369.911 525.656 377.859 525.656 377.859C525.656 377.859 500.053 378.909 492.467 377.781C489.481 377.337 499.108 372.365 508.939 369.079Z" fill="#6AABF5"/>
<path d="M517.005 188.437C517.005 188.437 520.476 206.38 519.061 219.986C517.647 233.591 517.536 281.921 517.536 281.921L524.061 359.224L510.126 359.548C510.126 359.548 494.938 282.257 495.221 284.241C495.504 286.225 490.129 229.82 490.129 229.82L508.235 186.736L517.005 188.437Z" fill="url(#paint1_linear_3368_18140)"/>
<path d="M517.005 188.437C517.005 188.437 520.476 206.38 519.061 219.986C517.647 233.591 517.536 281.921 517.536 281.921L524.061 359.224L510.126 359.548C510.126 359.548 494.938 282.257 495.221 284.241C495.504 286.225 490.129 229.82 490.129 229.82L508.235 186.736L517.005 188.437Z" fill="url(#paint2_linear_3368_18140)"/>
<path d="M512.152 176.85C512.152 176.85 527.877 193.396 522.027 211.47C519.678 218.73 497.762 288.084 497.48 293.753C497.197 299.422 490.068 362.08 490.068 362.08L475.175 361.632L471.953 291.969L476.21 198.106L485.249 182.276L512.152 176.85Z" fill="url(#paint3_linear_3368_18140)"/>
<path d="M512.152 176.85C512.152 176.85 527.877 193.396 522.027 211.47C519.678 218.73 497.762 288.084 497.48 293.753C497.197 299.422 490.068 362.08 490.068 362.08L475.175 361.632L471.953 291.969L476.21 198.106L485.249 182.276L512.152 176.85Z" fill="url(#paint4_linear_3368_18140)"/>
<path d="M416.679 122.993C421.828 117.253 433.036 109.086 433.036 109.086C433.036 109.086 439.712 103.389 442.434 102.452C446.44 101.072 453.302 97.3906 463.227 112.417C470.329 123.17 515.145 178.85 522.502 180.725L474.461 203.686C473.145 192.718 449.4 172.001 445.984 168.135C438.347 159.494 411.805 128.427 416.679 122.993Z" fill="url(#paint5_linear_3368_18140)"/>
<path d="M418.918 99.6641L433.883 108.416C433.883 108.416 434.304 121.178 429.411 124.493C425.307 127.275 422.183 120.599 422.183 120.599C422.183 120.599 416.617 112.895 412.391 110.495C408.164 108.095 418.918 99.6641 418.918 99.6641Z" fill="#FFE7DE"/>
<path d="M421.428 105.281C420.865 107.944 419.562 111.793 417.544 114.964C415.895 113.182 414.042 111.433 412.39 110.495C410.439 109.388 411.681 106.996 413.582 104.741C416.267 101.948 418.917 99.6641 418.917 99.6641L421.793 101.346C421.978 102.436 421.615 104.395 421.428 105.281Z" fill="#FFBA9C"/>
<path d="M411.123 77.7283C411.375 77.4173 423.676 92.7159 422.159 99.8915C420.643 107.068 413.206 113.616 408.037 111.815C402.32 109.824 391.689 91.8138 395.502 83.0691C399.315 74.3246 411.123 77.7283 411.123 77.7283Z" fill="#FFE7DE"/>
<path d="M397.655 72.9028C403.017 69.9229 411.765 69.0672 418.301 72.4864C426.338 76.6898 428.168 87.2661 425.653 93.7169C423.137 100.169 426.017 103.815 426.017 103.815L421.754 101.328C421.754 101.328 419.265 97.4451 418.939 94.3505C418.614 91.2556 414.095 91.8037 411.889 90.4003C410.191 89.3196 408.023 85.8077 405.274 83.9854C405.274 83.9854 398.354 83.137 394.951 85.0452C389.149 88.2978 389.974 77.1718 397.655 72.9028Z" fill="url(#paint6_linear_3368_18140)"/>
<path d="M415.345 92.979C415.306 95.2742 416.391 97.1528 417.77 97.1753C419.149 97.1978 420.299 95.3555 420.339 93.0609C420.379 90.7658 419.293 88.8872 417.914 88.8645C416.535 88.8417 415.385 90.6838 415.345 92.979Z" fill="#FFBA9C"/>
<path d="M331.22 186.386H310.193C309.064 186.386 308.148 185.471 308.148 184.343C308.148 183.215 309.064 182.301 310.193 182.301H331.22C332.349 182.301 333.264 183.215 333.264 184.343C333.264 185.471 332.349 186.386 331.22 186.386Z" fill="#0C2A57"/>
<path d="M331.22 209.099H310.193C309.064 209.099 308.148 208.185 308.148 207.057C308.148 205.929 309.064 205.015 310.193 205.015H331.22C332.349 205.015 333.264 205.929 333.264 207.057C333.264 208.185 332.349 209.099 331.22 209.099Z" fill="#0C2A57"/>
<path d="M334.271 214.23H350.426V177.171H334.271V214.23Z" fill="url(#paint7_linear_3368_18140)"/>
<path d="M350.426 214.23L364.935 200.93V190.47L350.426 177.17V214.23Z" fill="#FF8046"/>
<path d="M386.042 198.844L364.934 200.781V190.47L386.042 192.406C386.541 192.452 386.922 192.87 386.922 193.37V197.881C386.922 198.381 386.54 198.798 386.042 198.844Z" fill="#FFA37B"/>
<path d="M600 193.424H386.922V197.901H600V193.424Z" fill="#FF8046"/>
<path d="M382.137 199.203V192.048L384.281 192.245V199.006L382.137 199.203Z" fill="#EBB960"/>
<path d="M377.301 191.604L379.445 191.801V199.45L377.301 199.647V191.604Z" fill="#EBB960"/>
<path d="M372.465 191.16L374.609 191.357V199.893L372.465 200.09V191.16Z" fill="#FFA37B"/>
<path d="M367.625 190.717L369.769 190.913V200.337L367.625 200.534V190.717Z" fill="#FFA37B"/>
<path d="M331.504 215.809L334.271 214.23V177.17L331.504 175.592V215.809Z" fill="#FF8046"/>
<path d="M326.119 215.809H331.504V175.592H326.119V215.809Z" fill="url(#paint8_linear_3368_18140)"/>
<path d="M339.93 203.67C339.352 203.67 338.883 203.202 338.883 202.624V188.777C338.883 188.199 339.352 187.73 339.93 187.73C340.508 187.73 340.977 188.199 340.977 188.777V202.624C340.977 203.202 340.508 203.67 339.93 203.67Z" fill="#FFA37B"/>
<path d="M344.117 203.67C343.539 203.67 343.07 203.202 343.07 202.624V188.777C343.07 188.199 343.539 187.73 344.117 187.73C344.696 187.73 345.164 188.199 345.164 188.777V202.624C345.164 203.202 344.695 203.67 344.117 203.67Z" fill="#FFA37B"/>
<path d="M348.305 203.67C347.727 203.67 347.258 203.202 347.258 202.624V188.777C347.258 188.199 347.727 187.73 348.305 187.73C348.883 187.73 349.352 188.199 349.352 188.777V202.624C349.352 203.202 348.883 203.67 348.305 203.67Z" fill="#FFA37B"/>
<path d="M386.383 201.941C388.016 199.561 388.726 196.124 390.982 193.503C391.74 192.622 392.946 191.63 394.319 190.641C405.17 184.299 433.436 167.95 434.536 166.681C435.84 165.177 455.132 133.155 455.132 133.155L437.805 129.232L420.872 159.104C419.458 160.225 392.579 180.072 392.579 180.072C392.579 180.072 387.234 184.244 384.313 186.196C382.836 187.057 381.405 187.614 380.152 188.049C378.575 188.597 375.57 190.093 374.963 190.627C374.257 191.248 372.844 192.575 372.004 193.385C371.165 194.195 370.146 195.11 369.752 195.592C369.513 195.885 368.77 196.29 368.225 196.561C367.412 196.966 367.518 198.167 368.391 198.414C369.214 198.646 370.326 198.131 371.015 197.807C372.96 196.894 375.338 194.427 375.464 194.729C375.59 195.03 373.176 200.315 372.939 200.937C372.702 201.559 369.929 207.717 369.787 209.09C369.645 210.463 370.473 210.78 371.089 210.277C371.619 209.846 376.077 201.624 376.077 201.624C376.077 201.624 376.648 200.576 376.87 201.175C377.092 201.775 373.059 209.248 372.665 210.474C372.271 211.701 372.585 212.707 373.72 212.277C375.101 211.754 378.914 203.512 378.914 203.512C378.914 203.512 379.41 202.486 379.749 202.843C380.088 203.201 376.551 209.502 376.511 210.227C376.472 210.954 377.128 211.669 378.082 211.063C379.206 210.348 382.547 202.961 382.547 202.961C382.547 202.961 382.96 202.472 383.089 202.816C383.219 203.159 380.587 208.747 380.783 209.563C380.948 210.249 381.565 210.111 381.565 210.111C382.943 210.108 384.752 204.321 386.383 201.941Z" fill="#FFE7DE"/>
<path d="M450.393 150.07C450.393 150.07 444.751 148.276 441.131 146.621C438.707 145.512 428.133 140.256 428.133 140.256C428.133 140.256 432.692 121.044 435.773 114.137C447.083 88.7864 459.935 106.27 461.679 110.345C465.579 119.46 450.393 150.07 450.393 150.07Z" fill="#0C2A57"/>
<path d="M128.547 366.616C128.229 364.333 128.943 360.405 130.727 354.26C127.194 354.268 124.223 352.7 120.611 352.755C119.625 358.535 118.097 368.023 118.097 368.023L117.934 375.525L143.079 375.714C143.079 375.714 142.87 375.822 135.456 371.129C134.908 370.782 128.854 368.823 128.547 366.616Z" fill="#FFE7DE"/>
<path d="M96.9255 366.913C96.6072 364.629 96.0665 361.77 96.8593 354.155C93.3258 354.163 89.9629 353.499 86.3517 353.554C86.3517 359.499 86.4761 368.32 86.4761 368.32L86.3125 375.821L111.458 376.01C111.458 376.01 111.249 376.118 103.835 371.426C103.287 371.078 97.2329 369.119 96.9255 366.913Z" fill="#FFE7DE"/>
<path d="M86.1938 377.749H112.152C113.112 377.662 113.346 376.877 113.013 376.394C112.328 375.398 107.265 373.006 103.861 371.42C97.8904 372.049 87.3965 369.587 86.4542 368.201C84.8172 372.79 85.6601 377.63 86.1938 377.749Z" fill="#6AABF5"/>
<path d="M117.834 377.452H143.792C144.752 377.365 144.987 376.581 144.654 376.097C143.968 375.101 138.905 372.71 135.501 371.123C129.531 371.752 119.037 369.29 118.095 367.904C116.458 372.494 117.301 377.334 117.834 377.452Z" fill="#6AABF5"/>
<path d="M121.312 204.152L113.642 208.439L98.0508 232.323L125.934 298.076C125.934 298.076 122.794 307.965 121.771 312.905C120.7 318.074 118.075 362.438 118.075 362.438L129.97 362.638C129.97 362.638 141.269 315.409 143.182 300.08C145.506 281.465 131.358 237.132 131.358 237.132C128.72 228.087 123.031 209.48 123.031 209.48C123.031 209.48 121.639 204.946 121.312 204.152Z" fill="url(#paint9_linear_3368_18140)"/>
<path d="M96.0979 197.817C96.0979 197.817 94.3003 201.662 91.1284 208.07C89.1948 211.977 85.8543 215.04 83.4625 219.826C78.936 228.883 76.7769 238.383 79.2801 249.156C79.2801 249.156 88.6392 284.962 88.2679 298.049C88.1308 302.874 86.4785 311.569 85.4212 317.447C84.4864 322.643 84.8149 361.192 84.8149 361.192L97.4538 361.436L107.626 298.21L111.421 270.183L115.216 242.156L123.67 210.713L96.0979 197.817Z" fill="url(#paint10_linear_3368_18140)"/>
<path d="M96.0979 197.817C96.0979 197.817 94.3003 201.662 91.1284 208.07C89.1948 211.977 85.8543 215.04 83.4625 219.826C78.936 228.883 76.7769 238.383 79.2801 249.156C79.2801 249.156 88.6392 284.962 88.2679 298.049C88.1308 302.874 86.4785 311.569 85.4212 317.447C84.4864 322.643 84.8149 361.192 84.8149 361.192L97.4538 361.436L107.626 298.21L111.421 270.183L115.216 242.156L123.67 210.713L96.0979 197.817Z" fill="url(#paint11_linear_3368_18140)"/>
<path d="M153.195 138.482C159.35 131.064 160.874 121.628 166.832 113.988C169.036 111.162 173.356 107.845 176.547 106.21C190.735 98.9414 204.301 109.712 206.601 124.693C207.828 132.684 207.646 142.78 205.334 153.186C203.101 153.199 200.942 153.154 198.853 153.059L197.794 146.299L196.387 152.858C184.069 151.677 171.237 148.462 163.959 144.983L165.278 138.612L161.446 143.717C158.19 141.991 155.456 140.194 153.195 138.482Z" fill="url(#paint12_linear_3368_18140)"/>
<path d="M165.956 156.215C165.956 156.215 192.771 172.672 199.207 175.144C204.243 177.077 230.086 183.679 231.024 183.935C231.962 184.191 241.919 176.536 242.472 178.008C243.025 179.48 237.175 181.659 238.095 183.201C239.014 184.743 254.157 188.184 253.546 189.16C252.403 190.985 244.199 187.406 243.826 188.359C243.453 189.312 252.732 191.31 252.688 193.123C252.643 194.935 244.076 190.418 243.437 190.978C242.798 191.539 250.93 196.294 249.457 197.405C248.656 198.009 242.327 193.004 241.926 194.103C241.525 195.202 245.774 199.773 244.784 200.38C243.794 200.987 241.736 196.078 238.713 194.815C235.69 193.553 234.149 191.095 228.76 190.48C223.372 189.865 204.149 189.899 193.989 185.258C183.83 180.618 162.188 171.565 162.188 171.565L165.956 156.215Z" fill="#FFE7DE"/>
<path d="M172.278 177.338C172.278 177.338 153.254 169.381 148.164 164.869C143.074 160.358 142.352 150.204 147.407 146.891C152.463 143.577 179.397 163.033 179.397 163.033L172.278 177.338Z" fill="#0C2A57"/>
<path d="M173.782 132.428C173.782 132.428 170.687 130.462 170.546 130.368C170.405 130.274 168.576 132.544 168.388 132.932C168.201 133.32 167.685 136.881 168.107 137.068C168.529 137.255 170.821 138.425 171.035 138.192C171.249 137.958 173.782 132.428 173.782 132.428Z" fill="#F7A491"/>
<path d="M158.541 138.05C158.541 138.05 169.689 136.391 174.141 131.654L178.126 141.487C178.126 141.487 171.354 146.959 170.738 150.466C170.121 153.973 169.698 165.784 169.698 165.784L163.754 162.56C163.754 162.56 156.945 147.664 157.161 145.895C157.377 144.125 158.541 138.05 158.541 138.05Z" fill="#FFE7DE"/>
<path d="M158.538 138.051C158.538 138.051 145.942 136.03 129.553 147.995C113.163 159.961 92.3355 193.9 85.5664 214.56C85.5664 214.56 115.468 219.644 126.204 216.86C126.204 216.86 124.978 205.418 128.007 201.193C131.036 196.968 132.496 188.661 141.839 185.354C145.819 183.945 150.274 183.759 154.483 183.213C162.084 182.228 168.168 176.436 169.495 168.894L169.57 168.466C169.923 166.457 169.688 164.39 168.893 162.512L158.538 138.051Z" fill="url(#paint13_linear_3368_18140)"/>
<path d="M158.538 138.051C158.538 138.051 145.942 136.03 129.553 147.995C113.163 159.961 92.3355 193.9 85.5664 214.56C85.5664 214.56 115.468 219.644 126.204 216.86C126.204 216.86 124.978 205.418 128.007 201.193C131.036 196.968 132.496 188.661 141.839 185.354C145.819 183.945 150.274 183.759 154.483 183.213C162.084 182.228 168.168 176.436 169.495 168.894L169.57 168.466C169.923 166.457 169.688 164.39 168.893 162.512L158.538 138.051Z" fill="url(#paint14_linear_3368_18140)"/>
<path d="M174.594 144.729C173.236 141.029 173.423 132.893 173.423 132.893L173.585 132.192C173.777 132.017 173.964 131.839 174.137 131.654L178.122 141.487C178.122 141.487 176.387 142.89 174.594 144.729Z" fill="#FFBA9C"/>
<path d="M186.724 111.312C186.724 111.312 180.888 110.636 177.229 115.375C173.57 120.113 169.626 134.766 178.715 142.733C187.804 150.699 196.785 141.682 198.116 132.12C199.448 122.559 199.966 110.966 186.724 111.312Z" fill="#FFE7DE"/>
<path d="M200.805 131.979C199.72 134.091 197.899 135.26 196.738 134.591C195.576 133.921 195.514 131.667 196.599 129.555C197.684 127.443 199.505 126.274 200.666 126.943C201.828 127.613 201.89 129.867 200.805 131.979Z" fill="#FFBA9C"/>
<path d="M187.376 109.746C187.376 109.746 179.577 123.68 173.999 124.324C168.42 124.968 167.688 132.372 167.688 132.372C167.688 132.372 169.682 115.311 175.205 112.02C180.728 108.73 187.376 109.746 187.376 109.746Z" fill="url(#paint15_linear_3368_18140)"/>
<path d="M175.464 127.825C175.918 130.299 175.006 132.569 173.426 132.894C171.847 133.218 170.199 131.476 169.745 129.001C169.292 126.527 170.204 124.257 171.783 123.932C173.363 123.608 175.011 125.35 175.464 127.825Z" fill="#FFBA9C"/>
<path d="M161.177 123.894C164.84 116.846 166.541 119.303 166.316 120.276C166.09 121.248 165.215 130.791 165.465 130.768C165.715 130.744 170.864 128.413 170.864 128.413L171.035 131.855C171.035 131.855 168.368 140.232 169.73 145.795C169.73 145.795 164.476 145.939 159.315 143.397L159.65 139.052L156.979 142.037C155.614 141.102 154.317 139.938 153.195 138.482C153.195 138.482 157.513 130.942 161.177 123.894Z" fill="url(#paint16_linear_3368_18140)"/>
<path d="M224.732 200.677H0V205.153H224.732V200.677Z" fill="#FF8046"/>
<path d="M265.996 231.132H224.195C221.777 231.132 219.816 229.173 219.816 226.758V179.074C219.816 176.658 221.777 174.699 224.195 174.699H265.996C268.414 174.699 270.374 176.658 270.374 179.074V226.757C270.374 229.173 268.414 231.132 265.996 231.132Z" fill="#FFA37B"/>
<path d="M285.82 231.132H244.019C241.601 231.132 239.641 229.173 239.641 226.758V179.074C239.641 176.658 241.601 174.699 244.019 174.699H285.82C288.238 174.699 290.198 176.658 290.198 179.074V226.757C290.198 229.173 288.238 231.132 285.82 231.132Z" fill="url(#paint17_linear_3368_18140)"/>
<path d="M265.413 224.21C274.693 224.21 282.216 214.676 282.216 202.916C282.216 191.155 274.693 181.621 265.413 181.621C256.132 181.621 248.609 191.155 248.609 202.916C248.609 214.676 256.132 224.21 265.413 224.21Z" fill="#FFBA9C"/>
<path d="M265.413 181.621C264.85 181.621 264.294 181.658 263.746 181.726C272.244 182.786 278.883 191.868 278.883 202.916C278.883 213.963 272.244 223.045 263.746 224.105C264.294 224.174 264.85 224.21 265.413 224.21C274.693 224.21 282.216 214.676 282.216 202.916C282.216 191.155 274.693 181.621 265.413 181.621Z" fill="#FF8046"/>
<path d="M267.456 191.558C267.456 192.686 266.541 193.6 265.411 193.6C264.282 193.6 263.367 192.686 263.367 191.558C263.367 190.43 264.283 189.516 265.411 189.516C266.54 189.516 267.456 190.43 267.456 191.558Z" fill="#FFE7DE"/>
<path d="M267.456 214.273C267.456 215.401 266.541 216.315 265.411 216.315C264.282 216.315 263.367 215.401 263.367 214.273C263.367 213.145 264.283 212.23 265.411 212.23C266.54 212.23 267.456 213.145 267.456 214.273Z" fill="#FFE7DE"/>
<path d="M264.389 189.799C263.781 190.153 263.367 190.804 263.367 191.558C263.367 192.312 263.781 192.963 264.389 193.317C264.998 192.963 265.412 192.312 265.412 191.558C265.412 190.804 264.998 190.153 264.389 189.799Z" fill="#0C2A57"/>
<path d="M264.389 212.514C263.781 212.867 263.367 213.519 263.367 214.273C263.367 215.027 263.781 215.678 264.389 216.032C264.998 215.678 265.412 215.027 265.412 214.273C265.412 213.519 264.998 212.867 264.389 212.514Z" fill="#0C2A57"/>
<path d="M164.732 163.206C164.732 163.206 188.027 185.004 193.92 188.768C198.53 191.712 222.865 203.52 223.746 203.965C224.626 204.409 236.077 198.825 236.327 200.4C236.577 201.975 230.321 202.953 230.921 204.672C231.52 206.391 245.867 212.885 245.062 213.73C243.554 215.312 236.131 210.09 235.566 210.961C235.002 211.832 243.814 215.702 243.402 217.494C242.989 219.286 235.396 213.057 234.647 213.484C233.897 213.911 241.011 220.288 239.32 221.093C238.402 221.53 233.131 215.271 232.509 216.282C231.887 217.293 235.179 222.698 234.072 223.1C232.965 223.502 231.919 218.206 229.172 216.337C226.424 214.469 225.393 211.714 220.164 210.008C214.936 208.303 195.828 204.433 186.677 197.758C177.526 191.084 157.863 177.693 157.863 177.693L164.732 163.206Z" fill="#FFE7DE"/>
<path d="M174.941 169.939L162.691 183.604C162.691 183.604 149.563 174.337 144.335 168.992C132.779 157.179 139.889 141.035 151.216 148.339C159.559 153.719 174.941 169.939 174.941 169.939Z" fill="#0C2A57"/>
<defs>
<linearGradient id="paint0_linear_3368_18140" x1="302.329" y1="374.922" x2="302.329" y2="50.2398" gradientUnits="userSpaceOnUse">
<stop stop-color="#F2F5FA"/>
<stop offset="1" stop-color="#D0E1FA"/>
</linearGradient>
<linearGradient id="paint1_linear_3368_18140" x1="499.731" y1="363.713" x2="467.003" y2="354.279" gradientUnits="userSpaceOnUse">
<stop stop-color="#4299A1"/>
<stop offset="1" stop-color="#41C5B9"/>
</linearGradient>
<linearGradient id="paint2_linear_3368_18140" x1="507.095" y1="343.061" x2="507.095" y2="258.501" gradientUnits="userSpaceOnUse">
<stop stop-color="#FC5D1B"/>
<stop offset="1" stop-color="#FBAE8D"/>
</linearGradient>
<linearGradient id="paint3_linear_3368_18140" x1="486.493" y1="366.543" x2="440.452" y2="347.796" gradientUnits="userSpaceOnUse">
<stop stop-color="#66ACB2"/>
<stop offset="1" stop-color="#9DEAE3"/>
</linearGradient>
<linearGradient id="paint4_linear_3368_18140" x1="497.642" y1="344.407" x2="497.642" y2="253.772" gradientUnits="userSpaceOnUse">
<stop stop-color="#FC5D1B"/>
<stop offset="1" stop-color="#FDB698"/>
</linearGradient>
<linearGradient id="paint5_linear_3368_18140" x1="469.294" y1="202.97" x2="469.294" y2="107.703" gradientUnits="userSpaceOnUse">
<stop stop-color="#56A6F9"/>
<stop offset="1" stop-color="#0A2B58"/>
</linearGradient>
<linearGradient id="paint6_linear_3368_18140" x1="408.932" y1="105.703" x2="408.932" y2="70.2184" gradientUnits="userSpaceOnUse">
<stop stop-color="#FD5E1C"/>
<stop offset="0.8313" stop-color="#FBB595"/>
</linearGradient>
<linearGradient id="paint7_linear_3368_18140" x1="342.323" y1="177.256" x2="343.5" y2="214.501" gradientUnits="userSpaceOnUse">
<stop stop-color="#FFA37B"/>
<stop offset="1" stop-color="#FFF3ED"/>
</linearGradient>
<linearGradient id="paint8_linear_3368_18140" x1="328.803" y1="175.685" x2="328.803" y2="216" gradientUnits="userSpaceOnUse">
<stop stop-color="#FFA37B"/>
<stop offset="1" stop-color="#FFF3ED"/>
</linearGradient>
<linearGradient id="paint9_linear_3368_18140" x1="120.745" y1="347.517" x2="120.745" y2="269.968" gradientUnits="userSpaceOnUse">
<stop stop-color="#FC5D1B"/>
<stop offset="1" stop-color="#F9A886"/>
</linearGradient>
<linearGradient id="paint10_linear_3368_18140" x1="100.946" y1="360.295" x2="100.946" y2="208.448" gradientUnits="userSpaceOnUse">
<stop stop-color="#722CA8"/>
<stop offset="1" stop-color="#9F50DB"/>
</linearGradient>
<linearGradient id="paint11_linear_3368_18140" x1="100.946" y1="345.826" x2="100.946" y2="265.765" gradientUnits="userSpaceOnUse">
<stop stop-color="#FC5D1B"/>
<stop offset="1" stop-color="#FDB698"/>
</linearGradient>
<linearGradient id="paint12_linear_3368_18140" x1="180.273" y1="155.963" x2="180.273" y2="103.807" gradientUnits="userSpaceOnUse">
<stop stop-color="#FD5E1C"/>
<stop offset="0.8313" stop-color="#FBB595"/>
</linearGradient>
<linearGradient id="paint13_linear_3368_18140" x1="131.019" y1="222.101" x2="124.159" y2="130.865" gradientUnits="userSpaceOnUse">
<stop stop-color="#104B80"/>
<stop offset="0.7692" stop-color="#32B2F9"/>
</linearGradient>
<linearGradient id="paint14_linear_3368_18140" x1="127.648" y1="217.137" x2="127.648" y2="143.105" gradientUnits="userSpaceOnUse">
<stop stop-color="#56A6F9"/>
<stop offset="1" stop-color="#0A2B58"/>
</linearGradient>
<linearGradient id="paint15_linear_3368_18140" x1="177.531" y1="133.653" x2="177.531" y2="109.562" gradientUnits="userSpaceOnUse">
<stop stop-color="#FD5E1C"/>
<stop offset="0.8313" stop-color="#FBB595"/>
</linearGradient>
<linearGradient id="paint16_linear_3368_18140" x1="162.115" y1="147.301" x2="162.115" y2="119.018" gradientUnits="userSpaceOnUse">
<stop stop-color="#FD5E1C"/>
<stop offset="0.8313" stop-color="#FBB595"/>
</linearGradient>
<linearGradient id="paint17_linear_3368_18140" x1="265" y1="231.001" x2="265" y2="181.001" gradientUnits="userSpaceOnUse">
<stop stop-color="#FFF3ED"/>
<stop offset="1" stop-color="#FFA37B"/>
</linearGradient>
</defs>
</svg>
