<svg width="528" height="364" viewBox="0 0 528 364" fill="none" xmlns="http://www.w3.org/2000/svg">
<path opacity="0.41" d="M470.426 24.2429H57.574C25.5926 24.2429 -0.333984 50.1941 -0.333984 82.2079V278.019C-0.333984 325.327 37.979 363.678 85.2411 363.678H442.757C490.019 363.678 528.332 325.327 528.332 278.019V82.2079C528.333 50.195 502.407 24.2429 470.426 24.2429Z" fill="url(#paint0_linear_3368_15710)"/>
<path opacity="0.49" d="M-0.332031 82.2075V278.019C-0.332031 314.757 22.7758 346.089 55.2346 358.258V24.3021C24.3396 25.5334 -0.332031 50.98 -0.332031 82.2075Z" fill="white"/>
<path opacity="0.49" d="M472.527 24.2962V358.349C503.197 346.957 525.57 318.473 528.095 284.455V77.0605C525.55 48.1499 501.814 25.3436 472.527 24.2962Z" fill="white"/>
<path opacity="0.49" d="M409.883 24.2429H354.316V363.677H409.883V24.2429Z" fill="white"/>
<path opacity="0.49" d="M291.664 24.2429H236.098V363.677H291.664V24.2429Z" fill="white"/>
<path opacity="0.49" d="M173.449 24.2429H117.883V363.677H173.449V24.2429Z" fill="white"/>
<path d="M528.334 274.714H-0.332031V278.018C-0.332031 325.327 37.981 363.677 85.243 363.677H442.759C490.021 363.677 528.334 325.327 528.334 278.018V274.714Z" fill="#FFBA9C"/>
<path d="M92.7903 179.389V166.802H69.1527V179.389C69.1527 184.142 66.0711 188.346 61.5412 189.772C57.0112 191.198 53.9297 195.402 53.9297 200.154V273.466C53.9297 286.703 64.6502 297.433 77.8744 297.433H84.0703C97.2946 297.433 108.015 286.702 108.015 273.466V200.154C108.015 195.402 104.934 191.198 100.404 189.772C95.8718 188.346 92.7903 184.143 92.7903 179.389Z" fill="url(#paint1_linear_3368_15710)"/>
<path d="M93.2904 167.625H68.6516C67.8084 167.625 67.125 166.941 67.125 166.097V164.258C67.125 163.414 67.8084 162.729 68.6516 162.729H93.2904C94.1335 162.729 94.8169 163.414 94.8169 164.258V166.097C94.816 166.941 94.1335 167.625 93.2904 167.625Z" fill="url(#paint2_linear_3368_15710)"/>
<path d="M496.752 141.408C518.671 155.864 460.929 213.066 452.989 207.825C445.367 202.792 476.698 128.182 496.752 141.408Z" fill="url(#paint3_linear_3368_15710)"/>
<path d="M482.204 173.478C482.074 173.14 479.964 173.62 477.493 174.552C476.741 174.836 476.045 175.128 475.44 175.407C478.009 171.484 480.402 167.785 482.524 164.465C483.585 164.247 485.289 163.725 487.174 163.014C490.231 161.862 492.603 160.653 492.472 160.315C492.341 159.976 489.757 160.636 486.7 161.789C485.404 162.277 484.233 162.776 483.321 163.215C488.67 154.816 492.085 149.132 491.823 148.958C491.557 148.782 487.55 154.354 481.782 162.829C481.86 161.748 481.87 160.231 481.796 158.55C481.65 155.284 481.239 152.647 480.877 152.659C480.515 152.673 480.339 155.331 480.484 158.597C480.587 160.906 480.822 162.896 481.08 163.862C478.827 167.182 476.329 170.906 473.697 174.88C473.741 174.085 473.746 173.107 473.699 172.048C473.582 169.408 473.193 167.277 472.831 167.291C472.469 167.303 472.27 169.455 472.387 172.095C472.462 173.798 472.652 175.285 472.873 176.125C472.481 176.718 472.087 177.315 471.689 177.919C469.434 181.341 467.285 184.634 465.299 187.707C465.338 187.03 465.344 186.22 465.305 185.349C465.2 182.999 464.822 181.104 464.46 181.118C464.097 181.131 463.888 183.046 463.993 185.396C464.061 186.928 464.246 188.255 464.467 188.998C457.468 199.858 452.714 207.645 453.022 207.847C453.332 208.052 458.688 200.499 465.988 189.654C466.767 189.508 467.861 189.191 469.058 188.739C471.257 187.911 472.934 186.963 472.803 186.625C472.673 186.286 470.783 186.685 468.584 187.513C468.002 187.733 467.461 187.96 466.977 188.182C468.932 185.268 471.009 182.145 473.156 178.886C473.608 178.198 474.056 177.518 474.5 176.842C475.371 176.662 476.613 176.289 477.967 175.778C480.438 174.846 482.335 173.817 482.204 173.478Z" fill="#5BA2F5"/>
<path d="M410.087 141.784C388.167 156.241 445.909 213.442 453.849 208.202C461.471 203.169 430.141 128.559 410.087 141.784Z" fill="url(#paint4_linear_3368_15710)"/>
<path d="M424.634 173.855C424.764 173.517 426.874 173.997 429.345 174.929C430.096 175.212 430.793 175.505 431.398 175.784C428.83 171.861 426.436 168.161 424.314 164.841C423.253 164.624 421.549 164.101 419.664 163.39C416.608 162.238 414.235 161.03 414.367 160.691C414.497 160.353 417.081 161.013 420.138 162.165C421.435 162.654 422.605 163.152 423.517 163.591C418.169 155.192 414.754 149.508 415.015 149.335C415.282 149.159 419.289 154.731 425.056 163.206C424.979 162.124 424.968 160.608 425.043 158.927C425.188 155.66 425.599 153.024 425.961 153.036C426.323 153.049 426.499 155.708 426.354 158.973C426.252 161.283 426.016 163.272 425.759 164.239C428.011 167.559 430.509 171.283 433.141 175.257C433.096 174.462 433.092 173.484 433.139 172.425C433.256 169.784 433.645 167.654 434.008 167.667C434.37 167.68 434.569 169.831 434.451 172.472C434.376 174.175 434.187 175.662 433.965 176.502C434.357 177.095 434.751 177.692 435.149 178.295C437.404 181.717 439.553 185.011 441.539 188.084C441.5 187.407 441.496 186.597 441.534 185.726C441.639 183.376 442.017 181.481 442.379 181.494C442.741 181.508 442.95 183.423 442.846 185.773C442.777 187.305 442.593 188.632 442.372 189.375C449.371 200.234 454.124 208.021 453.816 208.224C453.507 208.428 448.15 200.876 440.851 190.031C440.072 189.885 438.979 189.567 437.781 189.116C435.582 188.287 433.906 187.34 434.036 187.002C434.166 186.663 436.056 187.061 438.255 187.89C438.837 188.109 439.378 188.337 439.863 188.559C437.907 185.645 435.831 182.521 433.684 179.263C433.231 178.575 432.784 177.895 432.339 177.219C431.468 177.039 430.226 176.666 428.872 176.155C426.4 175.223 424.503 174.193 424.634 173.855Z" fill="#5BA2F5"/>
<path d="M453.228 99.721C489.207 99.7042 466.264 208.772 453.228 208.772C440.714 208.772 420.312 99.737 453.228 99.721Z" fill="url(#paint5_linear_3368_15710)"/>
<path d="M460.764 147.405C460.359 147.116 458.308 149.26 456.183 152.192C455.537 153.084 454.959 153.945 454.478 154.721C454.459 148.293 454.409 142.252 454.334 136.849C455.384 135.799 456.939 133.915 458.562 131.677C461.19 128.05 462.993 124.875 462.588 124.587C462.184 124.298 459.724 127.005 457.095 130.633C455.981 132.172 455.017 133.626 454.304 134.817C454.091 121.166 453.714 112.082 453.283 112.082C452.846 112.082 452.462 121.485 452.252 135.538C451.525 134.243 450.394 132.5 449.042 130.633C446.413 127.006 443.954 124.299 443.549 124.587C443.144 124.875 444.947 128.05 447.576 131.677C449.434 134.242 451.205 136.34 452.227 137.252C452.153 142.752 452.103 148.9 452.086 155.435C451.538 154.49 450.805 153.369 449.953 152.192C447.829 149.26 445.778 147.117 445.373 147.405C444.968 147.693 446.362 150.304 448.487 153.236C449.858 155.127 451.195 156.686 452.082 157.48C452.08 158.455 452.079 159.436 452.079 160.426C452.079 166.045 452.103 171.436 452.147 176.453C451.682 175.649 451.077 174.719 450.376 173.751C448.484 171.141 446.623 169.259 446.219 169.547C445.814 169.836 447.019 172.186 448.911 174.796C450.143 176.497 451.356 177.876 452.168 178.558C452.346 196.271 452.778 208.771 453.283 208.771C453.792 208.771 454.227 196.084 454.403 178.161C455.185 177.404 456.196 176.216 457.225 174.796C459.116 172.186 460.322 169.836 459.917 169.547C459.512 169.259 457.651 171.141 455.76 173.751C455.259 174.441 454.812 175.109 454.425 175.73C454.465 170.919 454.487 165.777 454.487 160.426C454.487 159.297 454.485 158.181 454.483 157.071C455.344 156.209 456.485 154.842 457.648 153.236C459.773 150.304 461.168 147.693 460.764 147.405Z" fill="#5BA2F5"/>
<path d="M431.535 203.386H476.4C479.594 203.386 482.111 206.109 481.86 209.297L475.981 284.343C475.403 291.733 469.243 297.434 461.839 297.434H446.096C438.692 297.434 432.532 291.733 431.954 284.343L426.074 209.297C425.824 206.11 428.34 203.386 431.535 203.386Z" fill="url(#paint6_linear_3368_15710)"/>
<path d="M146.967 150.253V5.45837C146.967 2.44401 149.408 0 152.42 0H386.646C389.657 0 392.099 2.44401 392.099 5.45837V150.253C392.099 153.267 389.657 155.711 386.646 155.711H152.42C149.408 155.711 146.967 153.268 146.967 150.253Z" fill="url(#paint7_linear_3368_15710)"/>
<path d="M154.117 149.436L384.945 149.436V8.04167L154.117 8.04167L154.117 149.436Z" fill="#F0F5FE"/>
<path d="M352.7 27.7405H328.991C327.965 27.7405 327.133 26.9081 327.133 25.8802C327.133 24.8532 327.964 24.0199 328.991 24.0199H352.7C353.726 24.0199 354.558 24.8523 354.558 25.8802C354.558 26.9081 353.726 27.7405 352.7 27.7405Z" fill="#5BA2F5"/>
<path d="M304.235 27.7405H280.526C279.5 27.7405 278.668 26.9081 278.668 25.8802C278.668 24.8532 279.5 24.0199 280.526 24.0199H304.235C305.261 24.0199 306.094 24.8523 306.094 25.8802C306.094 26.9081 305.261 27.7405 304.235 27.7405Z" fill="#5BA2F5"/>
<path d="M368.534 36.3163H328.991C327.965 36.3163 327.133 35.4839 327.133 34.456C327.133 33.429 327.964 32.5957 328.991 32.5957H368.534C369.56 32.5957 370.392 33.4281 370.392 34.456C370.391 35.4839 369.56 36.3163 368.534 36.3163Z" fill="#5BA2F5"/>
<path d="M320.069 36.3163H280.526C279.5 36.3163 278.668 35.4839 278.668 34.456C278.668 33.429 279.5 32.5957 280.526 32.5957H320.069C321.095 32.5957 321.927 33.4281 321.927 34.456C321.926 35.4839 321.095 36.3163 320.069 36.3163Z" fill="#5BA2F5"/>
<path d="M368.534 44.8921H328.991C327.965 44.8921 327.133 44.0597 327.133 43.0318C327.133 42.0048 327.964 41.1715 328.991 41.1715H368.534C369.56 41.1715 370.392 42.0039 370.392 43.0318C370.391 44.0597 369.56 44.8921 368.534 44.8921Z" fill="#5BA2F5"/>
<path d="M320.069 44.8921H280.526C279.5 44.8921 278.668 44.0597 278.668 43.0318C278.668 42.0048 279.5 41.1715 280.526 41.1715H320.069C321.095 41.1715 321.927 42.0039 321.927 43.0318C321.926 44.0597 321.095 44.8921 320.069 44.8921Z" fill="#5BA2F5"/>
<path d="M282.333 59.9884H356.428C358.351 59.9884 359.91 58.4284 359.91 56.5032C359.91 54.578 358.351 53.018 356.428 53.018H282.333C280.41 53.018 278.852 54.578 278.852 56.5032C278.852 58.4284 280.411 59.9884 282.333 59.9884Z" fill="#5BA2F5"/>
<mask id="mask0_3368_15710" style="mask-type:luminance" maskUnits="userSpaceOnUse" x="154" y="8" width="231" height="142">
<path d="M154.117 149.436L384.945 149.436V8.04161L154.117 8.04161L154.117 149.436Z" fill="white"/>
</mask>
<g mask="url(#mask0_3368_15710)">
<path d="M229.948 31.7952C229.948 31.7952 233.806 22.1426 232.688 18.0622C231.695 14.4366 221.97 11.6772 213.356 19.0492C213.356 19.0492 201.717 20.7603 199.219 23.8546C197.429 26.0703 198.692 43.1765 203.818 43.5497C212.154 44.1556 229.948 31.7952 229.948 31.7952Z" fill="url(#paint8_linear_3368_15710)"/>
<path d="M176.609 189.948C172.623 159.742 181.729 144.17 181.729 144.17C217.688 156.681 246.517 144.17 246.517 144.17C249.743 152.904 255.073 170.991 253.63 188.116L176.609 189.948Z" fill="url(#paint9_linear_3368_15710)"/>
<path d="M241.421 136.63C241.421 136.63 247.958 141.453 247.205 144.17C244.317 154.597 189.725 152.588 181.358 145.137C180.272 144.17 182.259 132.154 182.001 113.231C182.001 113.231 166.114 116.805 161.441 109.777C155.728 101.184 175.581 69.7737 182.493 65.1726C191.454 59.207 232.331 59.5544 242.101 64.6769C249.28 68.4411 253.225 104.618 253.999 111.77C255.106 121.989 267.129 151.196 266.133 154.673C265.09 158.313 254.746 159.648 253.862 158.739C252.174 157.004 241.421 136.63 241.421 136.63Z" fill="#6AABF5"/>
<path d="M221.43 61.0664C221.43 61.0664 218.96 93.4133 217.427 93.4133C215.893 93.4133 206.35 68.0253 204.693 60.9616L221.43 61.0664Z" fill="url(#paint10_linear_3368_15710)"/>
<path d="M221.426 61.0664V54.0889L204.141 44.256C204.141 44.256 204.69 55.7475 204.69 60.9616C204.69 60.9616 207.295 64.4219 214.933 64.4121C220.685 64.4042 221.426 61.0664 221.426 61.0664Z" fill="url(#paint11_linear_3368_15710)"/>
<path d="M230.069 32.529C230.912 50.8729 226.34 57.6381 217.323 57.6976C208.583 57.7545 205.306 50.736 204.139 44.2569C200.679 43.8251 199.966 38.5684 201.229 37.513C202.515 36.438 203.551 38.3143 203.551 38.3143C208.855 38.3703 208.673 32.4544 208.673 32.4544C208.673 32.4544 210.61 32.9475 216.455 31.6664C227.339 29.2801 229.918 29.2046 230.069 32.529Z" fill="#FFB2B0"/>
<path d="M214.938 41.3553C214.938 42.258 214.432 42.99 213.809 42.99C213.185 42.99 212.68 42.258 212.68 41.3553C212.68 40.4527 213.185 39.7207 213.809 39.7207C214.433 39.7207 214.938 40.4527 214.938 41.3553Z" fill="#45555E"/>
<path d="M211.551 38.6857C211.551 38.6857 213.533 37.0892 215.756 38.2504" stroke="#45555E" stroke-width="0.968949" stroke-miterlimit="10" stroke-linecap="round"/>
<path d="M226.529 41.3553C226.529 42.258 227.035 42.99 227.658 42.99C228.282 42.99 228.787 42.258 228.787 41.3553C228.787 40.4527 228.282 39.7207 227.658 39.7207C227.035 39.7207 226.529 40.4527 226.529 41.3553Z" fill="#45555E"/>
<path d="M229.916 38.6857C229.916 38.6857 227.934 37.0892 225.711 38.2504" stroke="#45555E" stroke-width="0.968949" stroke-miterlimit="10" stroke-linecap="round"/>
<path d="M221.51 38.6857C221.51 38.6857 221.026 42.5254 222.409 43.9086" stroke="#E88E8E" stroke-width="1.45342" stroke-miterlimit="10" stroke-linecap="round"/>
<path d="M240.925 88.297C241.014 88.2979 241.095 89.101 241.253 90.5482C241.407 92.0025 241.63 94.1 241.905 96.6915C242.434 101.887 243.164 109.058 243.971 116.979C244.75 124.906 245.416 132.087 245.844 137.29C246.059 139.892 246.213 141.999 246.294 143.458C246.375 144.917 246.382 145.728 246.301 145.737C246.22 145.746 246.059 144.951 245.837 143.506C245.615 142.062 245.335 139.967 245.013 137.375C244.373 132.192 243.575 125.024 242.795 117.094C242.016 109.164 241.406 101.975 241.073 96.7599C240.907 94.1525 240.812 92.0381 240.793 90.574C240.777 89.109 240.851 88.2952 240.925 88.297Z" fill="#488BD8"/>
<path d="M221.896 48.3631C219.501 48.4573 219.157 46.6991 219.442 46.262C219.761 45.7716 220.932 46.2025 221.999 46.2167C223.55 46.2371 224.037 45.6286 224.357 45.9759C224.713 46.3606 224.278 48.2689 221.896 48.3631Z" fill="#702F2F"/>
<path d="M221.441 47.0438C220.536 46.6671 219.819 47.0411 219.518 47.2508C219.796 47.8318 220.492 48.4191 221.901 48.3631C222.137 48.3542 222.338 48.3142 222.536 48.2734C222.461 47.9189 222.217 47.3663 221.441 47.0438Z" fill="#FF5C5C"/>
<path d="M217.419 95.9088C217.501 95.908 217.588 96.6897 217.676 98.1059C217.763 99.522 217.851 101.572 217.936 104.105C218.103 109.173 218.254 116.174 218.347 123.909C218.441 131.643 218.459 138.647 218.413 143.716C218.39 146.25 218.352 148.302 218.298 149.72C218.244 151.138 218.176 151.922 218.094 151.922C218.013 151.923 217.926 151.139 217.838 149.723C217.75 148.306 217.662 146.257 217.578 143.723C217.41 138.655 217.259 131.655 217.166 123.922C217.073 116.188 217.054 109.186 217.1 104.117C217.123 101.582 217.162 99.53 217.216 98.1121C217.27 96.6951 217.338 95.9106 217.419 95.9088Z" fill="#488BD8"/>
<path d="M217.955 75.7874H223.495C226.148 75.7874 228.3 73.6339 228.3 70.9775V68.3852C228.3 65.7288 226.148 63.5753 223.495 63.5753H217.955C215.302 63.5753 213.15 65.7288 213.15 68.3852V70.9775C213.15 73.6339 215.302 75.7874 217.955 75.7874Z" fill="url(#paint12_linear_3368_15710)"/>
<path d="M220.258 106.03H221.196C222.159 106.03 222.957 105.279 223.016 104.315L224.5 79.9876H216.953L218.437 104.315C218.497 105.278 219.294 106.03 220.258 106.03Z" fill="url(#paint13_linear_3368_15710)"/>
<path d="M215.675 83.6248H225.769C226.793 83.6248 227.624 82.7933 227.624 81.7681V76.1684C227.624 75.1432 226.793 74.3117 225.769 74.3117H215.675C214.651 74.3117 213.82 75.1432 213.82 76.1684V81.7681C213.82 82.7942 214.651 83.6248 215.675 83.6248Z" fill="url(#paint14_linear_3368_15710)"/>
<path d="M211.523 89.7433C211.523 89.7433 226.536 77.4176 229.768 91.7032C231.671 100.121 215.09 100.982 215.09 100.982L211.523 89.7433Z" fill="url(#paint15_linear_3368_15710)"/>
<path d="M179.451 92.8918C179.448 92.8101 180.291 92.7168 181.832 92.4956C183.378 92.2788 185.62 91.9634 188.423 91.569C191.23 91.1665 194.596 90.6832 198.383 90.1404C200.28 89.8757 202.281 89.5967 204.371 89.3044C205.42 89.1676 206.489 89.0281 207.578 88.886C208.126 88.822 208.679 88.7571 209.236 88.6914C209.513 88.6576 209.8 88.6337 210.089 88.6097L210.522 88.5733C210.712 88.5688 210.908 88.5786 211.152 88.5937C211.456 88.6994 211.733 89.0112 211.821 89.1436C211.939 89.3106 212.041 89.4723 212.131 89.6331C212.317 89.9556 212.477 90.2763 212.632 90.6015C212.939 91.2509 213.216 91.9119 213.479 92.5826C214.005 93.9259 214.477 95.3092 214.882 96.7395C215.147 97.6794 215.381 98.6229 215.537 99.5895C215.613 100.075 215.678 100.561 215.679 101.078C215.68 101.337 215.663 101.607 215.608 101.895C215.533 102.185 215.432 102.551 215.028 102.851C210.763 105.473 206.401 107.128 202.437 108.459C198.463 109.77 194.854 110.718 191.826 111.436C188.797 112.152 186.343 112.626 184.648 112.916C182.952 113.204 182.012 113.303 181.998 113.23C181.985 113.156 182.897 112.918 184.562 112.502C186.226 112.085 188.645 111.496 191.635 110.682C194.624 109.866 198.189 108.839 202.104 107.478C206 106.102 210.308 104.405 214.385 101.873C214.365 101.897 214.427 101.804 214.463 101.651C214.491 101.484 214.507 101.291 214.505 101.084C214.504 100.67 214.446 100.223 214.375 99.7778C214.229 98.8832 214.003 97.9717 213.746 97.062C213.353 95.6761 212.893 94.3195 212.386 93.0117C212.131 92.3588 211.865 91.7164 211.577 91.0999C211.433 90.7925 211.284 90.4904 211.125 90.2115C210.98 89.937 210.737 89.626 210.801 89.7149C210.762 89.7229 210.675 89.7291 210.582 89.7229L210.172 89.7548C209.9 89.7762 209.629 89.7957 209.351 89.8277C208.799 89.8881 208.253 89.9476 207.71 90.0063C206.623 90.1369 205.556 90.2639 204.511 90.3892C202.418 90.6495 200.414 90.8991 198.515 91.1354C194.715 91.6063 191.335 92.0078 188.514 92.3081C185.693 92.6111 183.431 92.811 181.87 92.8945C180.311 92.9931 179.452 92.9522 179.451 92.8918Z" fill="#488BD8"/>
</g>
<path d="M303.334 182.012C303.334 182.012 304.546 165.071 305.271 157.393H325.497C325.497 157.393 325.542 170.259 325.797 177.411C325.797 177.411 316.947 188.762 312.631 188.762C304.661 188.762 303.334 182.012 303.334 182.012Z" fill="url(#paint16_linear_3368_15710)"/>
<path d="M313.568 150.815C313.568 150.815 318.279 160.15 309.901 163.417C308.466 163.977 301.36 164.038 298.007 160.006C294.653 155.972 298.612 133.563 298.612 133.563C299.614 130.928 316.07 128.879 320.165 132.597C324.26 136.317 324.487 145.047 322.364 147.703C320.241 150.359 313.568 150.815 313.568 150.815Z" fill="url(#paint17_linear_3368_15710)"/>
<path d="M282.894 276.083C296.448 277.657 335.1 276.487 348.542 273.768C351.003 273.27 351.967 270.898 351.981 268.384C352.077 251.186 351.102 237.97 351.102 237.97C351.102 237.97 358.221 250.311 360.697 256.8C363.858 265.087 368.87 290.309 369.402 291.913C369.98 293.655 382.339 295.47 384.468 293.113C385.672 291.78 388.056 256.414 384.623 244.309C378.93 224.235 360.473 192.502 347.871 182.481C334.385 171.758 300.986 173.077 279.884 175.846C268.816 177.299 245.571 189.609 234.771 189.861C224.85 190.092 195.378 177.103 193.203 176.877C187.924 176.329 183.556 189.987 185.484 193.146C187.094 195.784 222.395 215.185 232.549 215.185C245.42 215.185 278.236 207.623 278.236 207.623L278.566 270.978C278.435 273.559 280.33 275.786 282.894 276.083Z" fill="url(#paint18_linear_3368_15710)"/>
<path d="M337.627 135.232C335.978 127.509 329.8 124.774 322.764 122.831C318.759 121.726 313.416 111.188 304.74 115.253C296.137 119.284 298.349 132.328 298.349 132.328L298.612 133.563C298.561 133.779 299.177 137.502 301.642 140.787C304.263 144.278 307.573 144.333 307.573 144.333C307.573 144.333 311.295 144.747 312.15 141.124C312.15 141.124 314.541 139.315 315.845 140.875C317.598 142.97 317.733 149.54 312.897 150.018C312.897 150.018 310.953 158.053 312.895 159.911C316.853 163.693 322.023 162.527 325.799 160.85C333.573 157.393 339.205 142.616 337.627 135.232Z" fill="url(#paint19_linear_3368_15710)"/>
<path d="M351.103 202.868C351.331 202.844 351.765 204.787 352.082 207.969C352.398 211.149 352.6 215.559 352.556 220.424C352.474 230.155 351.586 238.002 351.101 237.97C350.611 237.94 350.705 230.082 350.787 220.41C350.804 215.578 350.82 211.205 350.833 208.031C350.837 204.863 350.844 202.893 351.103 202.868Z" fill="#80CAD1"/>
<path d="M173.873 261.325C223.514 280.572 255.135 258.549 255.135 258.549L173.873 261.325Z" fill="url(#paint20_linear_3368_15710)"/>
<path d="M171.893 304.207C167.182 298.673 151.067 196.16 169.057 177.075C182.143 163.192 248.134 163.938 260.307 177.201C265.753 183.134 271.198 210.595 271.217 236.082C271.233 258.727 257.49 306.186 253.352 307.552L171.893 304.207Z" fill="#6AABF5"/>
<path d="M175.363 243.992C175.086 243.909 175.33 241.559 175.512 237.697C175.703 233.84 175.913 228.505 176.093 222.599C176.437 210.787 176.758 201.176 177.436 201.168C178.06 201.158 178.798 210.776 178.452 222.673C178.271 228.618 177.793 234.003 177.172 237.875C176.56 241.748 175.712 244.097 175.363 243.992Z" fill="#A0B9C1"/>
<path d="M212.322 119.744C228.6 118.667 236.313 129.395 233.073 144.962C228.81 165.454 244.703 160.62 245.413 175.229C246.122 189.837 230.127 197.79 214.609 197.79C202.377 197.79 185.531 192.195 183.894 177.339C182.258 162.483 199.303 163.037 196.643 150.845C193.82 137.906 195.511 120.856 212.322 119.744Z" fill="url(#paint21_linear_3368_15710)"/>
<path d="M359.434 207.624H168.566C141.546 207.624 119.643 229.549 119.643 256.596V363.678H408.358V256.596C408.358 229.549 386.454 207.624 359.434 207.624Z" fill="url(#paint22_linear_3368_15710)"/>
<path d="M408.359 254.625H409.678C428.567 254.625 443.879 269.953 443.879 288.86V351.916C443.879 358.413 438.618 363.678 432.128 363.678H408.359V254.625Z" fill="url(#paint23_linear_3368_15710)"/>
<path d="M408.359 254.625H409.678C428.567 254.625 443.879 269.953 443.879 288.86V351.916C443.879 358.413 438.618 363.678 432.128 363.678H408.359V254.625Z" fill="url(#paint24_linear_3368_15710)"/>
<path d="M119.64 363.678H102.164C92.1984 363.678 84.1191 355.592 84.1191 345.617V286.627C84.1191 268.953 98.4324 254.625 116.089 254.625H119.639L119.64 363.678Z" fill="url(#paint25_linear_3368_15710)"/>
<path d="M190.631 193.639C190.631 193.639 165.205 188.715 171.544 176.279C176.875 165.821 195.46 180.962 195.46 180.962L190.631 193.639Z" fill="url(#paint26_linear_3368_15710)"/>
<path d="M279.884 175.846C268.816 177.298 245.571 189.609 234.771 189.861C224.851 190.092 195.378 177.103 193.203 176.877C187.924 176.329 183.556 189.987 185.484 193.146C187.094 195.783 222.395 215.185 232.549 215.185C245.42 215.185 278.236 207.623 278.236 207.623L283.091 175.45C281.998 175.579 280.923 175.71 279.884 175.846Z" fill="url(#paint27_linear_3368_15710)"/>
<defs>
<linearGradient id="paint0_linear_3368_15710" x1="264" y1="313.629" x2="264" y2="120.079" gradientUnits="userSpaceOnUse">
<stop stop-color="#FFF3ED"/>
<stop offset="1" stop-color="#FFA37B"/>
</linearGradient>
<linearGradient id="paint1_linear_3368_15710" x1="80.9714" y1="307.674" x2="80.9714" y2="214.067" gradientUnits="userSpaceOnUse">
<stop stop-color="#F0F3F8"/>
<stop offset="0.2124" stop-color="#F0F3F8"/>
<stop offset="0.5119" stop-color="#DEEAFA"/>
<stop offset="0.8618" stop-color="#D0E4FC"/>
<stop offset="1" stop-color="#D0E1FA"/>
</linearGradient>
<linearGradient id="paint2_linear_3368_15710" x1="80.9709" y1="307.676" x2="80.9709" y2="214.068" gradientUnits="userSpaceOnUse">
<stop stop-color="#BAD3DD"/>
<stop offset="0.1382" stop-color="#C8DCE4"/>
<stop offset="0.4881" stop-color="#E6EFF3"/>
<stop offset="0.7876" stop-color="#F8FBFC"/>
<stop offset="1" stop-color="white"/>
</linearGradient>
<linearGradient id="paint3_linear_3368_15710" x1="493.227" y1="194.264" x2="460.8" y2="150.374" gradientUnits="userSpaceOnUse">
<stop stop-color="#FDC5AC"/>
<stop offset="0.442308" stop-color="#F3E3E4"/>
<stop offset="1" stop-color="#C3DDF8"/>
</linearGradient>
<linearGradient id="paint4_linear_3368_15710" x1="446.561" y1="194.641" x2="414.134" y2="150.751" gradientUnits="userSpaceOnUse">
<stop stop-color="#FDC5AC"/>
<stop offset="0.442308" stop-color="#F3E3E4"/>
<stop offset="1" stop-color="#C3DDF8"/>
</linearGradient>
<linearGradient id="paint5_linear_3368_15710" x1="466.229" y1="186.588" x2="417.348" y2="155.731" gradientUnits="userSpaceOnUse">
<stop stop-color="#FDC5AC"/>
<stop offset="0.442308" stop-color="#F3E3E4"/>
<stop offset="1" stop-color="#C3DDF8"/>
</linearGradient>
<linearGradient id="paint6_linear_3368_15710" x1="453.967" y1="302.726" x2="453.967" y2="203.237" gradientUnits="userSpaceOnUse">
<stop stop-color="#FD5E1C"/>
<stop offset="0.8313" stop-color="#FBB595"/>
</linearGradient>
<linearGradient id="paint7_linear_3368_15710" x1="269.532" y1="154.624" x2="269.532" y2="10.1166" gradientUnits="userSpaceOnUse">
<stop stop-color="#FDC5AC"/>
<stop offset="0.528846" stop-color="#F6E3DF"/>
<stop offset="1" stop-color="#C3DDF8"/>
</linearGradient>
<linearGradient id="paint8_linear_3368_15710" x1="215.671" y1="40.7886" x2="215.671" y2="26.5173" gradientUnits="userSpaceOnUse">
<stop stop-color="#FC5D1B"/>
<stop offset="1" stop-color="#FDB698"/>
</linearGradient>
<linearGradient id="paint9_linear_3368_15710" x1="214.736" y1="159.435" x2="214.736" y2="128.572" gradientUnits="userSpaceOnUse">
<stop stop-color="#104B80"/>
<stop offset="0.7692" stop-color="#32B2F9"/>
</linearGradient>
<linearGradient id="paint10_linear_3368_15710" x1="217.203" y1="93.6512" x2="214.186" y2="69.9191" gradientUnits="userSpaceOnUse">
<stop offset="0.1463" stop-color="#BAD3DD"/>
<stop offset="1" stop-color="#FAFDFF"/>
</linearGradient>
<linearGradient id="paint11_linear_3368_15710" x1="212.815" y1="50.0768" x2="212.643" y2="64.0388" gradientUnits="userSpaceOnUse">
<stop offset="0.00051978" stop-color="#E08080"/>
<stop offset="1" stop-color="#FFC0C0"/>
</linearGradient>
<linearGradient id="paint12_linear_3368_15710" x1="210.938" y1="69.6813" x2="224.684" y2="69.6813" gradientUnits="userSpaceOnUse">
<stop stop-color="#993333"/>
<stop offset="1" stop-color="#FF6666"/>
</linearGradient>
<linearGradient id="paint13_linear_3368_15710" x1="220.727" y1="84.0515" x2="220.727" y2="110.449" gradientUnits="userSpaceOnUse">
<stop stop-color="#BAD3DD"/>
<stop offset="1" stop-color="#FAFDFF"/>
</linearGradient>
<linearGradient id="paint14_linear_3368_15710" x1="220.722" y1="73.5292" x2="220.722" y2="106.376" gradientUnits="userSpaceOnUse">
<stop stop-color="#104B80"/>
<stop offset="0.7692" stop-color="#32B2F9"/>
</linearGradient>
<linearGradient id="paint15_linear_3368_15710" x1="163.49" y1="121.099" x2="192.981" y2="106.497" gradientUnits="userSpaceOnUse">
<stop offset="0.00051978" stop-color="#E08080"/>
<stop offset="1" stop-color="#FFC0C0"/>
</linearGradient>
<linearGradient id="paint16_linear_3368_15710" x1="314.566" y1="178.345" x2="314.566" y2="145.325" gradientUnits="userSpaceOnUse">
<stop offset="0.00051978" stop-color="#E08080"/>
<stop offset="1" stop-color="#FFC0C0"/>
</linearGradient>
<linearGradient id="paint17_linear_3368_15710" x1="310.173" y1="178.345" x2="310.173" y2="145.325" gradientUnits="userSpaceOnUse">
<stop offset="0.00051978" stop-color="#E08080"/>
<stop offset="1" stop-color="#FFC0C0"/>
</linearGradient>
<linearGradient id="paint18_linear_3368_15710" x1="355.5" y1="311.339" x2="285.649" y2="211.21" gradientUnits="userSpaceOnUse">
<stop stop-color="#4A86CF"/>
<stop offset="1" stop-color="#A7CCF9"/>
</linearGradient>
<linearGradient id="paint19_linear_3368_15710" x1="317.577" y1="168.68" x2="318.288" y2="108.341" gradientUnits="userSpaceOnUse">
<stop stop-color="#FC5D1B"/>
<stop offset="0.7692" stop-color="#FFB89A"/>
</linearGradient>
<linearGradient id="paint20_linear_3368_15710" x1="214.504" y1="266.447" x2="214.504" y2="259.604" gradientUnits="userSpaceOnUse">
<stop stop-color="#AD57A1"/>
<stop offset="1" stop-color="#E387F9"/>
</linearGradient>
<linearGradient id="paint21_linear_3368_15710" x1="214.609" y1="190.336" x2="214.609" y2="152.111" gradientUnits="userSpaceOnUse">
<stop stop-color="#FC5D1B"/>
<stop offset="1" stop-color="#FDB698"/>
</linearGradient>
<linearGradient id="paint22_linear_3368_15710" x1="264" y1="362.589" x2="264" y2="217.763" gradientUnits="userSpaceOnUse">
<stop stop-color="#56A6F9"/>
<stop offset="1" stop-color="#0A2B58"/>
</linearGradient>
<linearGradient id="paint23_linear_3368_15710" x1="396.335" y1="309.152" x2="445.322" y2="309.152" gradientUnits="userSpaceOnUse">
<stop stop-color="#7129A9"/>
<stop offset="1" stop-color="#A047E5"/>
</linearGradient>
<linearGradient id="paint24_linear_3368_15710" x1="426.119" y1="362.917" x2="426.119" y2="261.711" gradientUnits="userSpaceOnUse">
<stop stop-color="#56A6F9"/>
<stop offset="1" stop-color="#0A2B58"/>
</linearGradient>
<linearGradient id="paint25_linear_3368_15710" x1="101.88" y1="362.917" x2="101.88" y2="261.711" gradientUnits="userSpaceOnUse">
<stop stop-color="#56A6F9"/>
<stop offset="1" stop-color="#0A2B58"/>
</linearGradient>
<linearGradient id="paint26_linear_3368_15710" x1="189.316" y1="186.019" x2="176.855" y2="179.316" gradientUnits="userSpaceOnUse">
<stop offset="0.00051978" stop-color="#E08080"/>
<stop offset="1" stop-color="#FFC0C0"/>
</linearGradient>
<linearGradient id="paint27_linear_3368_15710" x1="265.56" y1="249.058" x2="240.325" y2="196.912" gradientUnits="userSpaceOnUse">
<stop stop-color="#4A86CF"/>
<stop offset="1" stop-color="#A7CCF9"/>
</linearGradient>
</defs>
</svg>
