<svg width="528" height="364" viewBox="0 0 528 364" fill="none" xmlns="http://www.w3.org/2000/svg">
<g clip-path="url(#clip0_2894_13773)">
<path opacity="0.41" d="M470.426 24.4037H57.574C25.5926 24.4037 -0.333984 50.355 -0.333984 82.3687V278.18C-0.333984 325.488 37.979 363.839 85.2411 363.839H442.757C490.019 363.839 528.332 325.488 528.332 278.18V82.3687C528.333 50.3559 502.407 24.4037 470.426 24.4037Z" fill="url(#paint0_linear_2894_13773)"/>
<path opacity="0.49" d="M-0.332031 82.3684V278.179C-0.332031 314.918 22.7758 346.25 55.2346 358.419V24.463C24.3396 25.6943 -0.332031 51.1409 -0.332031 82.3684Z" fill="white"/>
<path opacity="0.49" d="M472.527 24.4571V358.51C503.197 347.118 525.57 318.634 528.095 284.616V77.2214C525.55 48.3108 501.814 25.5045 472.527 24.4571Z" fill="white"/>
<path opacity="0.49" d="M409.883 24.4037H354.316V363.838H409.883V24.4037Z" fill="white"/>
<path opacity="0.49" d="M291.664 24.4037H236.098V363.838H291.664V24.4037Z" fill="white"/>
<path opacity="0.49" d="M173.449 24.4037H117.883V363.838H173.449V24.4037Z" fill="white"/>
<path d="M528.334 274.875H-0.332031V278.179C-0.332031 325.488 37.981 363.838 85.243 363.838H442.759C490.021 363.838 528.334 325.488 528.334 278.179V274.875Z" fill="#FFBA9C"/>
<path d="M92.7903 179.55V166.963H69.1527V179.55C69.1527 184.303 66.0711 188.507 61.5412 189.933C57.0112 191.358 53.9297 195.562 53.9297 200.315V273.627C53.9297 286.864 64.6502 297.594 77.8744 297.594H84.0703C97.2946 297.594 108.015 286.863 108.015 273.627V200.315C108.015 195.562 104.934 191.358 100.404 189.933C95.8718 188.507 92.7903 184.304 92.7903 179.55Z" fill="url(#paint1_linear_2894_13773)"/>
<path d="M93.2904 167.785H68.6516C67.8084 167.785 67.125 167.101 67.125 166.257V164.418C67.125 163.574 67.8084 162.89 68.6516 162.89H93.2904C94.1335 162.89 94.8169 163.574 94.8169 164.418V166.257C94.816 167.101 94.1335 167.785 93.2904 167.785Z" fill="url(#paint2_linear_2894_13773)"/>
<path d="M496.752 141.569C518.671 156.025 460.929 213.227 452.989 207.986C445.367 202.953 476.698 128.343 496.752 141.569Z" fill="url(#paint3_linear_2894_13773)"/>
<path d="M482.204 173.639C482.074 173.301 479.964 173.781 477.493 174.713C476.741 174.997 476.045 175.289 475.44 175.568C478.009 171.645 480.402 167.945 482.524 164.625C483.585 164.408 485.289 163.885 487.174 163.175C490.231 162.022 492.603 160.814 492.472 160.476C492.341 160.137 489.757 160.797 486.7 161.95C485.404 162.438 484.233 162.937 483.321 163.375C488.67 154.976 492.085 149.292 491.823 149.119C491.557 148.943 487.55 154.515 481.782 162.99C481.86 161.909 481.87 160.392 481.796 158.711C481.65 155.445 481.239 152.808 480.877 152.82C480.515 152.834 480.339 155.492 480.484 158.758C480.587 161.067 480.822 163.057 481.08 164.023C478.827 167.343 476.329 171.067 473.697 175.041C473.741 174.246 473.746 173.268 473.699 172.209C473.582 169.569 473.193 167.438 472.831 167.451C472.469 167.464 472.27 169.616 472.387 172.256C472.462 173.959 472.652 175.446 472.873 176.286C472.481 176.879 472.087 177.476 471.689 178.079C469.434 181.502 467.285 184.795 465.299 187.868C465.338 187.191 465.344 186.381 465.305 185.51C465.2 183.16 464.822 181.265 464.46 181.279C464.097 181.292 463.888 183.207 463.993 185.557C464.061 187.089 464.246 188.416 464.467 189.159C457.468 200.019 452.714 207.806 453.022 208.008C453.332 208.212 458.688 200.66 465.988 189.815C466.767 189.669 467.861 189.352 469.058 188.9C471.257 188.071 472.934 187.124 472.803 186.786C472.673 186.447 470.783 186.845 468.584 187.674C468.002 187.894 467.461 188.121 466.977 188.343C468.932 185.429 471.009 182.306 473.156 179.047C473.608 178.359 474.056 177.679 474.5 177.003C475.371 176.823 476.613 176.45 477.967 175.939C480.438 175.007 482.335 173.978 482.204 173.639Z" fill="#5BA2F5"/>
<path d="M410.087 141.945C388.167 156.401 445.909 213.603 453.849 208.363C461.471 203.33 430.141 128.72 410.087 141.945Z" fill="url(#paint4_linear_2894_13773)"/>
<path d="M424.634 174.016C424.764 173.677 426.874 174.158 429.345 175.09C430.096 175.373 430.793 175.666 431.398 175.945C428.83 172.021 426.436 168.322 424.314 165.002C423.253 164.784 421.549 164.262 419.664 163.551C416.608 162.399 414.235 161.191 414.367 160.852C414.497 160.514 417.081 161.174 420.138 162.326C421.435 162.815 422.605 163.313 423.517 163.752C418.169 155.353 414.754 149.669 415.015 149.496C415.282 149.32 419.289 154.892 425.056 163.367C424.979 162.285 424.968 160.769 425.043 159.088C425.188 155.821 425.599 153.185 425.961 153.197C426.323 153.21 426.499 155.868 426.354 159.134C426.252 161.444 426.016 163.433 425.759 164.4C428.011 167.72 430.509 171.444 433.141 175.418C433.096 174.623 433.092 173.645 433.139 172.586C433.256 169.945 433.645 167.815 434.008 167.828C434.37 167.841 434.569 169.992 434.451 172.633C434.376 174.336 434.187 175.823 433.965 176.662C434.357 177.256 434.751 177.853 435.149 178.456C437.404 181.878 439.553 185.172 441.539 188.245C441.5 187.568 441.496 186.757 441.534 185.887C441.639 183.537 442.017 181.642 442.379 181.655C442.741 181.669 442.95 183.584 442.846 185.934C442.777 187.465 442.593 188.793 442.372 189.535C449.371 200.395 454.124 208.182 453.816 208.385C453.507 208.589 448.15 201.037 440.851 190.192C440.072 190.045 438.979 189.728 437.781 189.277C435.582 188.448 433.906 187.501 434.036 187.163C434.166 186.824 436.056 187.222 438.255 188.051C438.837 188.27 439.378 188.498 439.863 188.72C437.907 185.806 435.831 182.682 433.684 179.424C433.231 178.736 432.784 178.055 432.339 177.379C431.468 177.2 430.226 176.827 428.872 176.316C426.4 175.384 424.503 174.354 424.634 174.016Z" fill="#5BA2F5"/>
<path d="M453.228 99.8819C489.207 99.865 466.264 208.933 453.228 208.933C440.714 208.933 420.312 99.8979 453.228 99.8819Z" fill="url(#paint5_linear_2894_13773)"/>
<path d="M460.764 147.565C460.359 147.277 458.308 149.42 456.183 152.353C455.537 153.245 454.959 154.106 454.478 154.882C454.459 148.454 454.409 142.413 454.334 137.01C455.384 135.96 456.939 134.076 458.562 131.838C461.19 128.211 462.993 125.035 462.588 124.748C462.184 124.459 459.724 127.166 457.095 130.794C455.981 132.333 455.017 133.787 454.304 134.978C454.091 121.327 453.714 112.243 453.283 112.243C452.846 112.243 452.462 121.646 452.252 135.699C451.525 134.404 450.394 132.661 449.042 130.794C446.413 127.167 443.954 124.46 443.549 124.748C443.144 125.036 444.947 128.211 447.576 131.838C449.434 134.403 451.205 136.501 452.227 137.413C452.153 142.913 452.103 149.061 452.086 155.596C451.538 154.651 450.805 153.53 449.953 152.353C447.829 149.42 445.778 147.278 445.373 147.565C444.968 147.854 446.362 150.465 448.487 153.397C449.858 155.288 451.195 156.847 452.082 157.641C452.08 158.616 452.079 159.597 452.079 160.587C452.079 166.206 452.103 171.597 452.147 176.614C451.682 175.81 451.077 174.879 450.376 173.912C448.484 171.302 446.623 169.42 446.219 169.708C445.814 169.997 447.019 172.347 448.911 174.957C450.143 176.658 451.356 178.037 452.168 178.719C452.346 196.432 452.778 208.932 453.283 208.932C453.792 208.932 454.227 196.245 454.403 178.322C455.185 177.565 456.196 176.377 457.225 174.957C459.116 172.347 460.322 169.997 459.917 169.708C459.512 169.42 457.651 171.302 455.76 173.912C455.259 174.602 454.812 175.27 454.425 175.891C454.465 171.08 454.487 165.938 454.487 160.587C454.487 159.458 454.485 158.342 454.483 157.232C455.344 156.37 456.485 155.003 457.648 153.397C459.773 150.465 461.168 147.854 460.764 147.565Z" fill="#5BA2F5"/>
<path d="M431.535 203.547H476.4C479.594 203.547 482.111 206.27 481.86 209.458L475.981 284.504C475.403 291.894 469.243 297.595 461.839 297.595H446.096C438.692 297.595 432.532 291.894 431.954 284.504L426.074 209.458C425.824 206.271 428.34 203.547 431.535 203.547Z" fill="url(#paint6_linear_2894_13773)"/>
<path d="M146.967 150.414V5.61926C146.967 2.6049 149.408 0.160889 152.42 0.160889H386.646C389.657 0.160889 392.099 2.6049 392.099 5.61926V150.414C392.099 153.428 389.657 155.872 386.646 155.872H152.42C149.408 155.872 146.967 153.429 146.967 150.414Z" fill="url(#paint7_linear_2894_13773)"/>
<path d="M154.117 149.597L384.945 149.597V8.20256L154.117 8.20256L154.117 149.597Z" fill="#F0F5FE"/>
<path d="M352.7 27.9014H328.991C327.965 27.9014 327.133 27.069 327.133 26.0411C327.133 25.0141 327.964 24.1808 328.991 24.1808H352.7C353.726 24.1808 354.558 25.0132 354.558 26.0411C354.558 27.069 353.726 27.9014 352.7 27.9014Z" fill="#5BA2F5"/>
<path d="M304.235 27.9014H280.526C279.5 27.9014 278.668 27.069 278.668 26.0411C278.668 25.0141 279.5 24.1808 280.526 24.1808H304.235C305.261 24.1808 306.094 25.0132 306.094 26.0411C306.094 27.069 305.261 27.9014 304.235 27.9014Z" fill="#5BA2F5"/>
<path d="M368.534 36.4772H328.991C327.965 36.4772 327.133 35.6448 327.133 34.6169C327.133 33.5899 327.964 32.7566 328.991 32.7566H368.534C369.56 32.7566 370.392 33.589 370.392 34.6169C370.391 35.6448 369.56 36.4772 368.534 36.4772Z" fill="#5BA2F5"/>
<path d="M320.069 36.4772H280.526C279.5 36.4772 278.668 35.6448 278.668 34.6169C278.668 33.5899 279.5 32.7566 280.526 32.7566H320.069C321.095 32.7566 321.927 33.589 321.927 34.6169C321.926 35.6448 321.095 36.4772 320.069 36.4772Z" fill="#5BA2F5"/>
<path d="M368.534 45.053H328.991C327.965 45.053 327.133 44.2206 327.133 43.1927C327.133 42.1657 327.964 41.3324 328.991 41.3324H368.534C369.56 41.3324 370.392 42.1648 370.392 43.1927C370.391 44.2206 369.56 45.053 368.534 45.053Z" fill="#5BA2F5"/>
<path d="M320.069 45.053H280.526C279.5 45.053 278.668 44.2206 278.668 43.1927C278.668 42.1657 279.5 41.3324 280.526 41.3324H320.069C321.095 41.3324 321.927 42.1648 321.927 43.1927C321.926 44.2206 321.095 45.053 320.069 45.053Z" fill="#5BA2F5"/>
<path d="M282.333 60.1493H356.428C358.351 60.1493 359.91 58.5893 359.91 56.6641C359.91 54.7389 358.351 53.1789 356.428 53.1789H282.333C280.41 53.1789 278.852 54.7389 278.852 56.6641C278.852 58.5893 280.411 60.1493 282.333 60.1493Z" fill="#5BA2F5"/>
<mask id="mask0_2894_13773" style="mask-type:luminance" maskUnits="userSpaceOnUse" x="154" y="8" width="231" height="142">
<path d="M154.117 149.597L384.945 149.597V8.2025L154.117 8.2025L154.117 149.597Z" fill="white"/>
</mask>
<g mask="url(#mask0_2894_13773)">
<path d="M229.948 31.9561C229.948 31.9561 233.806 22.3035 232.688 18.2231C231.695 14.5975 221.97 11.8381 213.356 19.2101C213.356 19.2101 201.717 20.9212 199.219 24.0155C197.429 26.2312 198.692 43.3374 203.818 43.7106C212.154 44.3165 229.948 31.9561 229.948 31.9561Z" fill="url(#paint8_linear_2894_13773)"/>
<path d="M176.609 190.109C172.623 159.903 181.729 144.331 181.729 144.331C217.688 156.842 246.517 144.331 246.517 144.331C249.743 153.065 255.073 171.152 253.63 188.277L176.609 190.109Z" fill="url(#paint9_linear_2894_13773)"/>
<path d="M241.421 136.791C241.421 136.791 247.958 141.614 247.205 144.331C244.317 154.758 189.725 152.749 181.358 145.298C180.272 144.331 182.259 132.315 182.001 113.392C182.001 113.392 166.114 116.966 161.441 109.938C155.728 101.345 175.581 69.9346 182.493 65.3335C191.454 59.3679 232.331 59.7152 242.101 64.8378C249.28 68.602 253.225 104.779 253.999 111.93C255.106 122.15 267.129 151.357 266.133 154.833C265.09 158.474 254.746 159.809 253.862 158.9C252.174 157.165 241.421 136.791 241.421 136.791Z" fill="#6AABF5"/>
<path d="M221.43 61.2273C221.43 61.2273 218.96 93.5742 217.427 93.5742C215.893 93.5742 206.35 68.1862 204.693 61.1225L221.43 61.2273Z" fill="url(#paint10_linear_2894_13773)"/>
<path d="M221.426 61.2273V54.2498L204.141 44.4169C204.141 44.4169 204.69 55.9084 204.69 61.1225C204.69 61.1225 207.295 64.5828 214.933 64.573C220.685 64.565 221.426 61.2273 221.426 61.2273Z" fill="url(#paint11_linear_2894_13773)"/>
<path d="M230.069 32.6899C230.912 51.0337 226.34 57.799 217.323 57.8585C208.583 57.9153 205.306 50.8969 204.139 44.4178C200.679 43.986 199.966 38.7293 201.229 37.6739C202.515 36.5989 203.551 38.4752 203.551 38.4752C208.855 38.5312 208.673 32.6153 208.673 32.6153C208.673 32.6153 210.61 33.1084 216.455 31.8273C227.339 29.441 229.918 29.3655 230.069 32.6899Z" fill="#FFB2B0"/>
<path d="M214.938 41.5162C214.938 42.4189 214.432 43.1509 213.809 43.1509C213.185 43.1509 212.68 42.4189 212.68 41.5162C212.68 40.6136 213.185 39.8816 213.809 39.8816C214.433 39.8816 214.938 40.6136 214.938 41.5162Z" fill="#45555E"/>
<path d="M211.551 38.8466C211.551 38.8466 213.533 37.2501 215.756 38.4113" stroke="#45555E" stroke-width="0.968949" stroke-miterlimit="10" stroke-linecap="round"/>
<path d="M226.529 41.5162C226.529 42.4189 227.035 43.1509 227.658 43.1509C228.282 43.1509 228.787 42.4189 228.787 41.5162C228.787 40.6136 228.282 39.8816 227.658 39.8816C227.035 39.8816 226.529 40.6136 226.529 41.5162Z" fill="#45555E"/>
<path d="M229.916 38.8466C229.916 38.8466 227.934 37.2501 225.711 38.4113" stroke="#45555E" stroke-width="0.968949" stroke-miterlimit="10" stroke-linecap="round"/>
<path d="M221.51 38.8466C221.51 38.8466 221.026 42.6863 222.409 44.0695" stroke="#E88E8E" stroke-width="1.45342" stroke-miterlimit="10" stroke-linecap="round"/>
<path d="M240.925 88.4579C241.014 88.4587 241.095 89.2619 241.253 90.7091C241.407 92.1634 241.63 94.2609 241.905 96.8524C242.434 102.048 243.164 109.219 243.971 117.14C244.75 125.066 245.416 132.247 245.844 137.451C246.059 140.053 246.213 142.16 246.294 143.619C246.375 145.078 246.382 145.889 246.301 145.898C246.22 145.907 246.059 145.112 245.837 143.667C245.615 142.222 245.335 140.128 245.013 137.536C244.373 132.353 243.575 125.185 242.795 117.255C242.016 109.325 241.406 102.136 241.073 96.9208C240.907 94.3133 240.812 92.1989 240.793 90.7348C240.777 89.2699 240.851 88.4561 240.925 88.4579Z" fill="#488BD8"/>
<path d="M221.896 48.524C219.501 48.6182 219.157 46.86 219.442 46.4229C219.761 45.9325 220.932 46.3634 221.999 46.3776C223.55 46.398 224.037 45.7895 224.357 46.1368C224.713 46.5215 224.278 48.4298 221.896 48.524Z" fill="#702F2F"/>
<path d="M221.441 47.2047C220.536 46.828 219.819 47.202 219.518 47.4117C219.796 47.9927 220.492 48.58 221.901 48.524C222.137 48.5151 222.338 48.4751 222.536 48.4343C222.461 48.0798 222.217 47.5272 221.441 47.2047Z" fill="#FF5C5C"/>
<path d="M217.419 96.0697C217.501 96.0688 217.588 96.8506 217.676 98.2668C217.763 99.6829 217.851 101.733 217.936 104.266C218.103 109.334 218.254 116.335 218.347 124.07C218.441 131.804 218.459 138.807 218.413 143.877C218.39 146.411 218.352 148.463 218.298 149.881C218.244 151.298 218.176 152.083 218.094 152.083C218.013 152.084 217.926 151.3 217.838 149.884C217.75 148.467 217.662 146.418 217.578 143.884C217.41 138.816 217.259 131.816 217.166 124.083C217.073 116.349 217.054 109.347 217.1 104.278C217.123 101.743 217.162 99.6909 217.216 98.273C217.27 96.856 217.338 96.0715 217.419 96.0697Z" fill="#488BD8"/>
<path d="M217.955 75.9482H223.495C226.148 75.9482 228.3 73.7947 228.3 71.1384V68.546C228.3 65.8897 226.148 63.7362 223.495 63.7362H217.955C215.302 63.7362 213.15 65.8897 213.15 68.546V71.1384C213.15 73.7947 215.302 75.9482 217.955 75.9482Z" fill="url(#paint12_linear_2894_13773)"/>
<path d="M220.258 106.19H221.196C222.159 106.19 222.957 105.44 223.016 104.476L224.5 80.1485H216.953L218.437 104.476C218.497 105.439 219.294 106.19 220.258 106.19Z" fill="url(#paint13_linear_2894_13773)"/>
<path d="M215.675 83.7857H225.769C226.793 83.7857 227.624 82.9542 227.624 81.929V76.3293C227.624 75.3041 226.793 74.4726 225.769 74.4726H215.675C214.651 74.4726 213.82 75.3041 213.82 76.3293V81.929C213.82 82.9551 214.651 83.7857 215.675 83.7857Z" fill="url(#paint14_linear_2894_13773)"/>
<path d="M211.523 89.9042C211.523 89.9042 226.536 77.5785 229.768 91.864C231.671 100.282 215.09 101.143 215.09 101.143L211.523 89.9042Z" fill="url(#paint15_linear_2894_13773)"/>
<path d="M179.451 93.0527C179.448 92.971 180.291 92.8777 181.832 92.6565C183.378 92.4397 185.62 92.1243 188.423 91.7299C191.23 91.3274 194.596 90.8441 198.383 90.3013C200.28 90.0366 202.281 89.7576 204.371 89.4653C205.42 89.3285 206.489 89.189 207.578 89.0469C208.126 88.9829 208.679 88.918 209.236 88.8523C209.513 88.8185 209.8 88.7946 210.089 88.7706L210.522 88.7341C210.712 88.7297 210.908 88.7395 211.152 88.7546C211.456 88.8603 211.733 89.1721 211.821 89.3045C211.939 89.4715 212.041 89.6332 212.131 89.794C212.317 90.1165 212.477 90.4372 212.632 90.7624C212.939 91.4118 213.216 92.0728 213.479 92.7435C214.005 94.0868 214.477 95.47 214.882 96.9004C215.147 97.8403 215.381 98.7838 215.537 99.7504C215.613 100.235 215.678 100.721 215.679 101.239C215.68 101.498 215.663 101.768 215.608 102.056C215.533 102.346 215.432 102.712 215.028 103.012C210.763 105.634 206.401 107.289 202.437 108.62C198.463 109.931 194.854 110.879 191.826 111.597C188.797 112.313 186.343 112.787 184.648 113.077C182.952 113.365 182.012 113.464 181.998 113.391C181.985 113.317 182.897 113.079 184.562 112.663C186.226 112.246 188.645 111.657 191.635 110.843C194.624 110.027 198.189 109 202.104 107.639C206 106.263 210.308 104.566 214.385 102.034C214.365 102.058 214.427 101.965 214.463 101.812C214.491 101.644 214.507 101.452 214.505 101.245C214.504 100.831 214.446 100.384 214.375 99.9387C214.229 99.0441 214.003 98.1326 213.746 97.2229C213.353 95.837 212.893 94.4804 212.386 93.1726C212.131 92.5196 211.865 91.8773 211.577 91.2608C211.433 90.9534 211.284 90.6513 211.125 90.3724C210.98 90.0979 210.737 89.7869 210.801 89.8757C210.762 89.8837 210.675 89.89 210.582 89.8837L210.172 89.9157C209.9 89.937 209.629 89.9566 209.351 89.9886C208.799 90.049 208.253 90.1085 207.71 90.1671C206.623 90.2977 205.556 90.4248 204.511 90.55C202.418 90.8104 200.414 91.06 198.515 91.2963C194.715 91.7672 191.335 92.1687 188.514 92.469C185.693 92.772 183.431 92.9718 181.87 93.0553C180.311 93.154 179.452 93.1131 179.451 93.0527Z" fill="#488BD8"/>
</g>
<path d="M303.334 182.173C303.334 182.173 304.546 165.232 305.271 157.554H325.497C325.497 157.554 325.542 170.42 325.797 177.572C325.797 177.572 316.947 188.923 312.631 188.923C304.661 188.923 303.334 182.173 303.334 182.173Z" fill="url(#paint16_linear_2894_13773)"/>
<path d="M313.568 150.976C313.568 150.976 318.279 160.31 309.901 163.578C308.466 164.138 301.36 164.199 298.007 160.167C294.653 156.133 298.612 133.724 298.612 133.724C299.614 131.089 316.07 129.039 320.165 132.758C324.26 136.478 324.487 145.208 322.364 147.864C320.241 150.52 313.568 150.976 313.568 150.976Z" fill="url(#paint17_linear_2894_13773)"/>
<path d="M282.894 276.244C296.448 277.817 335.1 276.648 348.542 273.929C351.003 273.43 351.967 271.058 351.981 268.545C352.077 251.347 351.102 238.131 351.102 238.131C351.102 238.131 358.221 250.472 360.697 256.961C363.858 265.248 368.87 290.47 369.402 292.074C369.98 293.816 382.339 295.631 384.468 293.274C385.672 291.941 388.056 256.575 384.623 244.47C378.93 224.396 360.473 192.663 347.871 182.642C334.385 171.919 300.986 173.238 279.884 176.007C268.816 177.459 245.571 189.77 234.771 190.021C224.85 190.252 195.378 177.264 193.203 177.038C187.924 176.49 183.556 190.148 185.484 193.307C187.094 195.944 222.395 215.346 232.549 215.346C245.42 215.346 278.236 207.784 278.236 207.784L278.566 271.139C278.435 273.72 280.33 275.946 282.894 276.244Z" fill="url(#paint18_linear_2894_13773)"/>
<path d="M337.627 135.392C335.978 127.67 329.8 124.935 322.764 122.992C318.759 121.887 313.416 111.349 304.74 115.414C296.137 119.445 298.349 132.489 298.349 132.489L298.612 133.724C298.561 133.94 299.177 137.663 301.642 140.948C304.263 144.439 307.573 144.494 307.573 144.494C307.573 144.494 311.295 144.908 312.15 141.285C312.15 141.285 314.541 139.476 315.845 141.036C317.598 143.131 317.733 149.701 312.897 150.179C312.897 150.179 310.953 158.214 312.895 160.071C316.853 163.854 322.023 162.688 325.799 161.011C333.573 157.554 339.205 142.777 337.627 135.392Z" fill="url(#paint19_linear_2894_13773)"/>
<path d="M351.103 203.029C351.331 203.005 351.765 204.948 352.082 208.13C352.398 211.31 352.6 215.72 352.556 220.584C352.474 230.316 351.586 238.163 351.101 238.131C350.611 238.101 350.705 230.243 350.787 220.571C350.804 215.739 350.82 211.366 350.833 208.192C350.837 205.024 350.844 203.054 351.103 203.029Z" fill="#80CAD1"/>
<path d="M173.873 261.486C223.514 280.733 255.135 258.709 255.135 258.709L173.873 261.486Z" fill="url(#paint20_linear_2894_13773)"/>
<path d="M171.893 304.368C167.182 298.834 151.067 196.321 169.057 177.236C182.143 163.353 248.134 164.099 260.307 177.362C265.753 183.295 271.198 210.756 271.217 236.243C271.233 258.888 257.49 306.347 253.352 307.713L171.893 304.368Z" fill="#6AABF5"/>
<path d="M175.363 244.153C175.086 244.069 175.33 241.72 175.512 237.858C175.703 234.001 175.913 228.666 176.093 222.76C176.437 210.948 176.758 201.337 177.436 201.329C178.06 201.319 178.798 210.937 178.452 222.834C178.271 228.779 177.793 234.164 177.172 238.035C176.56 241.909 175.712 244.258 175.363 244.153Z" fill="#A0B9C1"/>
<path d="M212.322 119.905C228.6 118.828 236.313 129.556 233.073 145.123C228.81 165.615 244.703 160.78 245.413 175.389C246.122 189.998 230.127 197.951 214.609 197.951C202.377 197.951 185.531 192.356 183.894 177.5C182.258 162.643 199.303 163.198 196.643 151.006C193.82 138.067 195.511 121.017 212.322 119.905Z" fill="url(#paint21_linear_2894_13773)"/>
<path d="M359.434 207.785H168.566C141.546 207.785 119.643 229.71 119.643 256.757V363.839H408.358V256.757C408.358 229.71 386.454 207.785 359.434 207.785Z" fill="url(#paint22_linear_2894_13773)"/>
<path d="M408.359 254.786H409.678C428.567 254.786 443.879 270.114 443.879 289.021V352.077C443.879 358.574 438.618 363.839 432.128 363.839H408.359V254.786Z" fill="url(#paint23_linear_2894_13773)"/>
<path d="M408.359 254.786H409.678C428.567 254.786 443.879 270.114 443.879 289.021V352.077C443.879 358.574 438.618 363.839 432.128 363.839H408.359V254.786Z" fill="url(#paint24_linear_2894_13773)"/>
<path d="M119.64 363.839H102.164C92.1984 363.839 84.1191 355.753 84.1191 345.778V286.788C84.1191 269.114 98.4324 254.786 116.089 254.786H119.639L119.64 363.839Z" fill="url(#paint25_linear_2894_13773)"/>
<path d="M190.631 193.8C190.631 193.8 165.205 188.876 171.544 176.44C176.875 165.982 195.46 181.123 195.46 181.123L190.631 193.8Z" fill="url(#paint26_linear_2894_13773)"/>
<path d="M279.884 176.007C268.816 177.459 245.571 189.77 234.771 190.021C224.851 190.252 195.378 177.264 193.203 177.038C187.924 176.49 183.556 190.148 185.484 193.307C187.094 195.944 222.395 215.345 232.549 215.345C245.42 215.345 278.236 207.784 278.236 207.784L283.091 175.611C281.998 175.739 280.923 175.871 279.884 176.007Z" fill="url(#paint27_linear_2894_13773)"/>
<path d="M124.912 120.032H41.877V67.2943H124.912V120.032ZM47.4081 114.496H119.382V72.8309H47.4081V114.496Z" fill="#FF8C59"/>
<path d="M119.38 72.8308H47.4062V114.496H119.38V72.8308Z" fill="#FFE7DE"/>
</g>
<defs>
<linearGradient id="paint0_linear_2894_13773" x1="264" y1="313.79" x2="264" y2="120.24" gradientUnits="userSpaceOnUse">
<stop stop-color="#FFF3ED"/>
<stop offset="1" stop-color="#FFA37B"/>
</linearGradient>
<linearGradient id="paint1_linear_2894_13773" x1="80.9714" y1="307.835" x2="80.9714" y2="214.228" gradientUnits="userSpaceOnUse">
<stop stop-color="#F0F3F8"/>
<stop offset="0.2124" stop-color="#F0F3F8"/>
<stop offset="0.5119" stop-color="#DEEAFA"/>
<stop offset="0.8618" stop-color="#D0E4FC"/>
<stop offset="1" stop-color="#D0E1FA"/>
</linearGradient>
<linearGradient id="paint2_linear_2894_13773" x1="80.9709" y1="307.837" x2="80.9709" y2="214.229" gradientUnits="userSpaceOnUse">
<stop stop-color="#BAD3DD"/>
<stop offset="0.1382" stop-color="#C8DCE4"/>
<stop offset="0.4881" stop-color="#E6EFF3"/>
<stop offset="0.7876" stop-color="#F8FBFC"/>
<stop offset="1" stop-color="white"/>
</linearGradient>
<linearGradient id="paint3_linear_2894_13773" x1="493.227" y1="194.425" x2="460.8" y2="150.535" gradientUnits="userSpaceOnUse">
<stop stop-color="#FDC5AC"/>
<stop offset="0.442308" stop-color="#F3E3E4"/>
<stop offset="1" stop-color="#C3DDF8"/>
</linearGradient>
<linearGradient id="paint4_linear_2894_13773" x1="446.561" y1="194.801" x2="414.134" y2="150.911" gradientUnits="userSpaceOnUse">
<stop stop-color="#FDC5AC"/>
<stop offset="0.442308" stop-color="#F3E3E4"/>
<stop offset="1" stop-color="#C3DDF8"/>
</linearGradient>
<linearGradient id="paint5_linear_2894_13773" x1="466.229" y1="186.749" x2="417.348" y2="155.891" gradientUnits="userSpaceOnUse">
<stop stop-color="#FDC5AC"/>
<stop offset="0.442308" stop-color="#F3E3E4"/>
<stop offset="1" stop-color="#C3DDF8"/>
</linearGradient>
<linearGradient id="paint6_linear_2894_13773" x1="453.967" y1="302.886" x2="453.967" y2="203.398" gradientUnits="userSpaceOnUse">
<stop stop-color="#FD5E1C"/>
<stop offset="0.8313" stop-color="#FBB595"/>
</linearGradient>
<linearGradient id="paint7_linear_2894_13773" x1="269.532" y1="154.785" x2="269.532" y2="10.2775" gradientUnits="userSpaceOnUse">
<stop stop-color="#FDC5AC"/>
<stop offset="0.528846" stop-color="#F6E3DF"/>
<stop offset="1" stop-color="#C3DDF8"/>
</linearGradient>
<linearGradient id="paint8_linear_2894_13773" x1="215.671" y1="40.9495" x2="215.671" y2="26.6782" gradientUnits="userSpaceOnUse">
<stop stop-color="#FC5D1B"/>
<stop offset="1" stop-color="#FDB698"/>
</linearGradient>
<linearGradient id="paint9_linear_2894_13773" x1="214.736" y1="159.596" x2="214.736" y2="128.733" gradientUnits="userSpaceOnUse">
<stop stop-color="#104B80"/>
<stop offset="0.7692" stop-color="#32B2F9"/>
</linearGradient>
<linearGradient id="paint10_linear_2894_13773" x1="217.203" y1="93.8121" x2="214.186" y2="70.0799" gradientUnits="userSpaceOnUse">
<stop offset="0.1463" stop-color="#BAD3DD"/>
<stop offset="1" stop-color="#FAFDFF"/>
</linearGradient>
<linearGradient id="paint11_linear_2894_13773" x1="212.815" y1="50.2377" x2="212.643" y2="64.1997" gradientUnits="userSpaceOnUse">
<stop offset="0.00051978" stop-color="#E08080"/>
<stop offset="1" stop-color="#FFC0C0"/>
</linearGradient>
<linearGradient id="paint12_linear_2894_13773" x1="210.938" y1="69.8422" x2="224.684" y2="69.8422" gradientUnits="userSpaceOnUse">
<stop stop-color="#993333"/>
<stop offset="1" stop-color="#FF6666"/>
</linearGradient>
<linearGradient id="paint13_linear_2894_13773" x1="220.727" y1="84.2124" x2="220.727" y2="110.61" gradientUnits="userSpaceOnUse">
<stop stop-color="#BAD3DD"/>
<stop offset="1" stop-color="#FAFDFF"/>
</linearGradient>
<linearGradient id="paint14_linear_2894_13773" x1="220.722" y1="73.6901" x2="220.722" y2="106.536" gradientUnits="userSpaceOnUse">
<stop stop-color="#104B80"/>
<stop offset="0.7692" stop-color="#32B2F9"/>
</linearGradient>
<linearGradient id="paint15_linear_2894_13773" x1="163.49" y1="121.26" x2="192.981" y2="106.658" gradientUnits="userSpaceOnUse">
<stop offset="0.00051978" stop-color="#E08080"/>
<stop offset="1" stop-color="#FFC0C0"/>
</linearGradient>
<linearGradient id="paint16_linear_2894_13773" x1="314.566" y1="178.506" x2="314.566" y2="145.486" gradientUnits="userSpaceOnUse">
<stop offset="0.00051978" stop-color="#E08080"/>
<stop offset="1" stop-color="#FFC0C0"/>
</linearGradient>
<linearGradient id="paint17_linear_2894_13773" x1="310.173" y1="178.506" x2="310.173" y2="145.486" gradientUnits="userSpaceOnUse">
<stop offset="0.00051978" stop-color="#E08080"/>
<stop offset="1" stop-color="#FFC0C0"/>
</linearGradient>
<linearGradient id="paint18_linear_2894_13773" x1="355.5" y1="311.5" x2="285.649" y2="211.371" gradientUnits="userSpaceOnUse">
<stop stop-color="#4A86CF"/>
<stop offset="1" stop-color="#A7CCF9"/>
</linearGradient>
<linearGradient id="paint19_linear_2894_13773" x1="317.577" y1="168.841" x2="318.288" y2="108.502" gradientUnits="userSpaceOnUse">
<stop stop-color="#FC5D1B"/>
<stop offset="0.7692" stop-color="#FFB89A"/>
</linearGradient>
<linearGradient id="paint20_linear_2894_13773" x1="214.504" y1="266.608" x2="214.504" y2="259.765" gradientUnits="userSpaceOnUse">
<stop stop-color="#AD57A1"/>
<stop offset="1" stop-color="#E387F9"/>
</linearGradient>
<linearGradient id="paint21_linear_2894_13773" x1="214.609" y1="190.497" x2="214.609" y2="152.272" gradientUnits="userSpaceOnUse">
<stop stop-color="#FC5D1B"/>
<stop offset="1" stop-color="#FDB698"/>
</linearGradient>
<linearGradient id="paint22_linear_2894_13773" x1="264" y1="362.75" x2="264" y2="217.924" gradientUnits="userSpaceOnUse">
<stop stop-color="#56A6F9"/>
<stop offset="1" stop-color="#0A2B58"/>
</linearGradient>
<linearGradient id="paint23_linear_2894_13773" x1="396.335" y1="309.312" x2="445.322" y2="309.312" gradientUnits="userSpaceOnUse">
<stop stop-color="#7129A9"/>
<stop offset="1" stop-color="#A047E5"/>
</linearGradient>
<linearGradient id="paint24_linear_2894_13773" x1="426.119" y1="363.078" x2="426.119" y2="261.871" gradientUnits="userSpaceOnUse">
<stop stop-color="#56A6F9"/>
<stop offset="1" stop-color="#0A2B58"/>
</linearGradient>
<linearGradient id="paint25_linear_2894_13773" x1="101.88" y1="363.078" x2="101.88" y2="261.871" gradientUnits="userSpaceOnUse">
<stop stop-color="#56A6F9"/>
<stop offset="1" stop-color="#0A2B58"/>
</linearGradient>
<linearGradient id="paint26_linear_2894_13773" x1="189.316" y1="186.18" x2="176.855" y2="179.477" gradientUnits="userSpaceOnUse">
<stop offset="0.00051978" stop-color="#E08080"/>
<stop offset="1" stop-color="#FFC0C0"/>
</linearGradient>
<linearGradient id="paint27_linear_2894_13773" x1="265.56" y1="249.219" x2="240.325" y2="197.073" gradientUnits="userSpaceOnUse">
<stop stop-color="#4A86CF"/>
<stop offset="1" stop-color="#A7CCF9"/>
</linearGradient>
<clipPath id="clip0_2894_13773">
<rect width="528" height="364" fill="white"/>
</clipPath>
</defs>
</svg>
