<svg width="528" height="341" viewBox="0 0 528 341" fill="none" xmlns="http://www.w3.org/2000/svg">
<path d="M528 237.435H34.5703V32.4596C34.5703 14.5327 49.0796 0 66.9777 0H495.593C513.491 0 528.001 14.5327 528.001 32.4596L528 237.435Z" fill="#FDF0EB"/>
<path d="M527.996 237.435H477.234V0.000976562H495.59C513.488 0.000976562 527.997 14.5337 527.997 32.4605L527.996 237.435Z" fill="url(#paint0_linear_2910_7510)"/>
<path d="M85.332 237.435H34.5703V32.4596C34.5703 14.5327 49.0796 0 66.9777 0H85.3329L85.332 237.435Z" fill="url(#paint1_linear_2910_7510)"/>
<path d="M195.996 0.000976562H145.234V237.435H195.996V0.000976562Z" fill="url(#paint2_linear_2910_7510)"/>
<path d="M306.66 0.000976562H255.898V237.435H306.66V0.000976562Z" fill="url(#paint3_linear_2910_7510)"/>
<path d="M417.332 0.000976562H366.57V237.435H417.332V0.000976562Z" fill="url(#paint4_linear_2910_7510)"/>
<path d="M478.489 340.999H84.08C56.7365 340.999 34.5703 318.798 34.5703 291.41V236.017H528V291.41C528 318.798 505.834 340.999 478.489 340.999Z" fill="#FFBA9C"/>
<g opacity="0.9">
<path d="M165.028 36.9805C174.438 36.9805 187.879 142.509 165.028 145.975C142.177 149.442 153.379 36.9805 165.028 36.9805Z" fill="url(#paint5_linear_2910_7510)"/>
<path d="M165.028 36.9805C174.438 36.9805 187.879 142.509 165.028 145.975C142.177 149.442 153.379 36.9805 165.028 36.9805Z" fill="url(#paint6_linear_2910_7510)"/>
<path d="M164.685 146.054C164.926 146.054 165.121 125.774 165.121 100.759C165.121 75.7427 164.926 55.4634 164.685 55.4634C164.445 55.4634 164.25 75.7427 164.25 100.759C164.25 125.774 164.445 146.054 164.685 146.054Z" fill="#5BA2F5"/>
<path d="M203.856 74.3146C211.322 78.5477 186.928 168.338 167.642 160.809C148.356 153.281 194.611 69.0748 203.856 74.3146Z" fill="url(#paint7_linear_2910_7510)"/>
<path d="M197.448 88.829C197.67 88.9216 191.111 105.09 182.8 124.942C174.489 144.794 167.571 160.812 167.349 160.718C167.128 160.626 173.686 144.457 181.997 124.605C190.308 104.753 197.226 88.7364 197.448 88.829Z" fill="#5BA2F5"/>
<path d="M227.943 121.148C232.65 129.11 173.424 193.287 159.824 175.685C146.224 158.083 222.113 111.29 227.943 121.148Z" fill="url(#paint8_linear_2910_7510)"/>
<path d="M216.219 130.109C216.369 130.297 203.817 140.597 188.183 153.113C172.549 165.63 159.753 175.624 159.603 175.437C159.453 175.249 172.005 164.949 187.639 152.432C203.274 139.916 216.07 129.921 216.219 130.109Z" fill="#5BA2F5"/>
<path d="M229.407 157.513C232.929 166.266 165.46 218.273 154.525 198.314C143.589 178.356 225.046 146.677 229.407 157.513Z" fill="url(#paint9_linear_2910_7510)"/>
<path d="M216.583 164.117C216.698 164.328 202.859 172.091 185.672 181.455C168.485 190.82 154.46 198.24 154.344 198.029C154.229 197.817 168.069 190.054 185.256 180.69C202.442 171.325 216.468 163.905 216.583 164.117Z" fill="#5BA2F5"/>
<path d="M99.9612 157.513C96.439 166.266 163.908 218.273 174.843 198.314C185.779 178.356 104.322 146.677 99.9612 157.513Z" fill="url(#paint10_linear_2910_7510)"/>
<path d="M112.786 164.117C112.901 163.905 126.926 171.325 144.113 180.69C161.3 190.054 175.139 197.817 175.024 198.029C174.909 198.24 160.884 190.82 143.697 181.455C126.511 172.091 112.672 164.328 112.786 164.117Z" fill="#C5EFE4"/>
<path d="M125.512 74.3146C118.045 78.5477 142.44 168.338 161.726 160.809C181.011 153.281 134.756 69.0748 125.512 74.3146Z" fill="url(#paint11_linear_2910_7510)"/>
<path d="M131.923 88.829C132.145 88.7355 139.063 104.753 147.374 124.605C155.685 144.456 162.244 160.625 162.022 160.718C161.801 160.812 154.884 144.794 146.571 124.942C138.259 105.09 131.702 88.9225 131.923 88.829Z" fill="#5BA2F5"/>
<path d="M101.43 121.148C96.7219 129.11 155.948 193.287 169.549 175.685C183.149 158.083 107.259 111.29 101.43 121.148Z" fill="url(#paint12_linear_2910_7510)"/>
<path d="M113.15 130.109C113.3 129.921 126.096 139.916 141.73 152.432C157.363 164.949 169.916 175.249 169.766 175.437C169.616 175.624 156.82 165.63 141.186 153.113C125.552 140.597 113 130.297 113.15 130.109Z" fill="#C5EFE4"/>
</g>
<path d="M230.91 143.784C244.447 143.784 249.639 143.784 249.639 143.784L255.421 268.653C255.421 278.715 247.278 286.872 237.232 286.872H169.887C156.583 286.872 146.384 275.036 148.328 261.854L155.435 213.663C156.579 205.905 163.425 200.288 171.245 200.692H189.974L213.015 202.849L219.386 153.92C220.141 148.121 225.073 143.784 230.91 143.784Z" fill="url(#paint13_linear_2910_7510)"/>
<path d="M249.64 143.784C263.178 143.784 274.152 154.775 274.152 168.335V268.653C274.152 278.715 266.008 286.872 255.962 286.872H188.617C175.314 286.872 165.115 275.036 167.059 261.854L174.166 213.663C175.31 205.905 182.155 200.288 189.975 200.692L200.759 201.249L213.14 201.887L219.802 202.232C226.543 202.58 232.418 197.675 233.291 190.972L238.116 153.92C238.871 148.121 243.803 143.784 249.64 143.784Z" fill="url(#paint14_linear_2910_7510)"/>
<path d="M181.838 202.572C181.917 202.701 180.763 203.332 179.133 204.948C178.332 205.763 177.426 206.839 176.628 208.239C175.839 209.638 175.146 211.36 174.846 213.351C173.761 221.62 172.183 233.106 170.314 245.738C169.842 248.897 169.382 251.982 168.937 254.961C168.71 256.45 168.487 257.912 168.268 259.344C168.047 260.777 167.815 262.189 167.695 263.498C167.219 268.846 168.903 273.656 171.154 277.013C172.285 278.699 173.489 280.12 174.711 281.194C175.291 281.765 175.917 282.196 176.447 282.653C177.024 283.049 177.551 283.41 178.025 283.736C178.523 284.029 178.965 284.288 179.348 284.514C179.732 284.742 180.08 284.888 180.348 285.038C180.89 285.325 181.168 285.504 181.148 285.56C181.128 285.616 180.809 285.547 180.214 285.362C179.919 285.263 179.542 285.164 179.125 284.981C178.708 284.791 178.229 284.572 177.689 284.325C177.168 284.043 176.6 283.703 175.973 283.335C175.393 282.903 174.712 282.491 174.074 281.93C172.737 280.878 171.401 279.448 170.139 277.71C168.889 275.963 167.766 273.849 167.016 271.415C166.264 268.986 165.897 266.24 166.097 263.376C166.208 261.925 166.421 260.533 166.625 259.1C166.829 257.665 167.038 256.201 167.25 254.71C167.684 251.729 168.133 248.642 168.593 245.482C170.464 232.835 172.226 221.426 173.634 213.136C174.041 210.992 174.873 209.173 175.796 207.732C176.729 206.289 177.764 205.221 178.674 204.447C180.525 202.917 181.803 202.493 181.838 202.572Z" fill="#70D8EF"/>
<path d="M489.841 286.432H247.086V157.742C247.086 150.033 253.325 143.784 261.022 143.784H475.905C483.602 143.784 489.841 150.034 489.841 157.742V286.432Z" fill="url(#paint15_linear_2910_7510)"/>
<path d="M489.843 286.87H186.953V239.619C186.953 232.783 192.485 227.242 199.311 227.242H489.843V286.87Z" fill="url(#paint16_linear_2910_7510)"/>
<path d="M266.812 125.79C262.481 126.343 246.02 116.782 246.02 116.782C246.02 116.782 241.455 110.109 244.249 105.103C246.41 101.231 254.215 101.81 259.502 106.719C259.502 106.719 267.955 107.498 269.337 109.524C270.455 111.163 270.255 112.453 270.255 112.453C270.255 112.453 271.416 112.863 271.832 113.861C272.486 115.428 270.636 125.303 266.812 125.79Z" fill="url(#paint17_linear_2910_7510)"/>
<path d="M163.976 286.273L168.37 278.397L178.232 284.531L171.998 292.552L167.465 297.754C166.344 299.039 164.419 299.232 163.067 298.193L147.49 286.219C144.978 284.288 147.123 280.325 150.109 281.379L163.976 286.273Z" fill="#C17474"/>
<path d="M171.998 292.551C165.534 291.265 163.977 286.273 163.977 286.273L150.109 281.378C147.123 280.324 144.978 284.287 147.49 286.217L163.067 298.191C164.419 299.23 166.344 299.038 167.465 297.753L171.998 292.551Z" fill="url(#paint18_linear_2910_7510)"/>
<path d="M216.517 295.239L215.169 286.318L226.714 285.11L226.697 295.275L226.299 302.168C226.2 303.872 224.796 305.205 223.092 305.214L203.456 305.316C200.29 305.333 199.559 300.885 202.564 299.884L216.517 295.239Z" fill="#C17474"/>
<path d="M226.7 295.275C220.806 298.227 216.52 295.238 216.52 295.238L202.568 299.886C199.563 300.886 200.294 305.334 203.46 305.318L223.096 305.215C224.8 305.207 226.204 303.872 226.303 302.169L226.7 295.275Z" fill="url(#paint19_linear_2910_7510)"/>
<path d="M237.252 204.537C237.252 204.537 200.563 222.915 192.947 231.839C183.505 242.901 169.678 270.427 165.034 279.919C164.096 281.836 164.589 284.148 166.23 285.512L170.898 289.391C172.91 291.064 175.904 290.731 177.499 288.655C185.196 278.632 205.79 252.021 210.079 248.61C229.198 233.404 283.901 236.83 283.584 200.262L237.252 204.537Z" fill="url(#paint20_linear_2910_7510)"/>
<path d="M286.996 202.125C286.996 202.125 290.321 214.175 285.005 223.072C277.424 235.76 249.531 226.78 240.759 244.494C235.045 256.032 230.926 280.884 229.568 289.903C229.278 291.827 227.612 293.233 225.67 293.199L217.558 293.055C215.525 293.018 213.867 291.416 213.76 289.383C213.212 279.049 211.995 249.088 215.295 233.508C218.544 218.169 244.916 203.808 244.916 203.808L286.996 202.125Z" fill="url(#paint21_linear_2910_7510)"/>
<path d="M279.812 215.595C279.812 215.595 276.215 232.27 268.137 227.917C261.343 224.257 271.554 212.233 271.554 212.233L279.812 215.595Z" fill="url(#paint22_linear_2910_7510)"/>
<path d="M199.279 200.739C199.279 200.739 183.083 206.015 182.773 196.832C182.512 189.11 198.025 191.899 198.025 191.899L199.279 200.739Z" fill="url(#paint23_linear_2910_7510)"/>
<path d="M237.254 204.536C240.179 206.823 284.246 205.882 286.629 202.991C289.204 199.433 281.098 180.398 281.098 180.398C281.098 180.398 276.098 186.279 274.722 191.289C272.59 199.057 269.181 209.719 269.181 213.584C269.181 216.243 278.328 218.68 280.172 217.699C282.015 216.718 294.275 188.556 294.294 178.126C294.312 167.107 291.503 151.039 283.214 144.444C274.344 137.387 245.242 138.69 238.372 145.772C233.255 151.046 225.948 177.147 220.746 179.784C216.632 181.87 197.761 189.887 195.728 190.905C194.055 191.743 194.541 200.866 195.944 202.126C197.161 203.219 222.173 199.829 228.286 196.747C231.634 195.06 237.418 185.174 237.418 185.174C237.418 185.174 236.05 202.653 237.254 204.536Z" fill="url(#paint24_linear_2910_7510)"/>
<path d="M252.551 140.477C252.551 140.477 252.551 139.69 252.551 134.395L265.841 126.83C265.841 126.83 265.414 135.806 265.414 139.817C265.414 139.817 261.109 147.372 257.178 147.087C252.767 146.767 252.551 140.477 252.551 140.477Z" fill="url(#paint25_linear_2910_7510)"/>
<path d="M245.904 117.807C245.257 131.921 248.772 137.125 255.704 137.171C262.424 137.214 264.943 131.815 265.841 126.83C268.502 126.498 269.05 122.454 268.079 121.641C267.09 120.813 266.294 122.258 266.294 122.258C264.824 121.087 264.654 117.886 264.654 117.886C264.654 117.886 262.107 118.863 257.543 116.269C251.797 113.004 245.828 114.251 245.904 117.807Z" fill="#C17474"/>
<path d="M258.415 125.854C258.894 125.854 259.283 125.291 259.283 124.597C259.283 123.902 258.894 123.339 258.415 123.339C257.936 123.339 257.547 123.902 257.547 124.597C257.547 125.291 257.936 125.854 258.415 125.854Z" fill="#45555E"/>
<path d="M260.147 122.544C260.147 122.544 258.624 121.316 256.914 122.21" stroke="#45555E" stroke-width="0.951796" stroke-miterlimit="10" stroke-linecap="round"/>
<path d="M247.759 125.854C248.238 125.854 248.627 125.291 248.627 124.597C248.627 123.902 248.238 123.339 247.759 123.339C247.279 123.339 246.891 123.902 246.891 124.597C246.891 125.291 247.279 125.854 247.759 125.854Z" fill="#45555E"/>
<path d="M246.023 122.544C246.023 122.544 247.547 121.316 249.257 122.21" stroke="#45555E" stroke-width="0.951796" stroke-miterlimit="10" stroke-linecap="round"/>
<path d="M252.488 122.544C252.488 122.544 252.86 125.498 251.797 126.562" stroke="#E88E8E" stroke-width="1.42769" stroke-miterlimit="10" stroke-linecap="round"/>
<path d="M273.849 164.209C273.976 164.134 275.279 166.153 276.509 169.808C277.113 171.633 277.689 173.878 277.898 176.445C278.122 179.055 277.628 181.864 277.051 184.712C275.828 190.428 274.289 195.47 273.107 199.095C271.918 202.718 271.041 204.911 270.891 204.862C270.737 204.811 271.336 202.533 272.321 198.86C273.299 195.188 274.707 190.123 275.915 184.476C276.489 181.648 276.986 178.946 276.831 176.517C276.689 174.059 276.215 171.859 275.723 170.046C274.721 166.412 273.694 164.285 273.849 164.209Z" fill="#D38D42"/>
<path d="M239.616 158.983C239.935 159.008 239.701 164.893 239.094 172.128C238.487 179.362 237.736 185.204 237.416 185.175C237.097 185.146 237.331 179.261 237.938 172.031C238.544 164.8 239.297 158.959 239.616 158.983Z" fill="#D38D42"/>
<path d="M253.129 130.44C254.9 130.521 254.977 128.977 254.766 128.604C254.53 128.186 254.036 127.928 253.206 127.851C252.061 127.745 251.499 128.081 251.366 128.527C251.245 128.93 251.367 130.361 253.129 130.44Z" fill="#702F2F"/>
<path d="M252.562 130.354C252.73 130.399 252.916 130.43 253.128 130.44C253.973 130.478 254.425 130.144 254.651 129.746C254.429 129.513 254.124 129.345 253.643 129.423C252.894 129.545 252.616 130.004 252.562 130.354Z" fill="#FF5C5C"/>
<path d="M236.675 210.127C236.76 210.267 234.672 211.669 231.432 214.105C229.814 215.324 227.908 216.802 225.903 218.562C223.917 220.328 221.753 222.342 219.969 224.786C218.198 227.196 217.323 230.034 216.549 232.577C215.804 235.135 215.294 237.493 214.906 239.481C214.142 243.463 213.855 245.965 213.689 245.951C213.536 245.943 213.534 243.402 214.097 239.346C214.385 237.319 214.817 234.914 215.52 232.287C215.868 230.972 216.3 229.607 216.83 228.217C217.325 226.833 218.103 225.387 219.029 224.103C220.914 221.525 223.146 219.504 225.208 217.749C227.285 216.004 229.263 214.579 230.956 213.436C234.344 211.153 236.595 209.993 236.675 210.127Z" fill="#4185CD"/>
<path d="M388.667 119.477C388.667 119.477 386.916 111.337 393.619 107.104C400.142 102.984 407.156 102.919 408.604 105.43C410.053 107.942 405.586 110.058 405.586 110.058C405.586 110.058 410.361 107.946 411.29 110.221C411.997 111.955 410.685 112.854 410.685 112.854C410.685 112.854 413.329 113.915 414.041 115.95C415.11 119.004 413.101 128.233 409.598 128.162L388.667 119.477Z" fill="url(#paint26_linear_2910_7510)"/>
<path d="M451.33 118.69C451.33 118.69 446.37 103.627 454.892 103.304C462.059 103.031 459.529 117.487 459.529 117.487L451.33 118.69Z" fill="url(#paint27_linear_2910_7510)"/>
<path d="M329.409 147.098C329.409 147.098 314.575 152.647 313.922 144.131C313.371 136.968 327.892 138.938 327.892 138.938L329.409 147.098Z" fill="url(#paint28_linear_2910_7510)"/>
<path d="M424.89 142.418C428.138 142.502 446.978 140.981 447.836 138.641C448.445 136.979 448.603 118.164 449.812 115.641C450.352 114.514 460.768 114.157 460.768 116.277C460.768 120.558 464.827 149.075 459.714 153.531C456.436 156.387 429.274 164.838 429.274 164.838C429.274 164.838 430.785 200.828 429.391 202.992C427.008 205.883 382.941 206.825 380.015 204.537C378.811 202.654 380.178 185.175 380.178 185.175C380.178 185.175 382.618 160.183 378.77 158.514C377.342 157.894 369.589 154.729 360.64 153.585C346.867 151.823 327.756 149.322 327.019 148.66C325.616 147.4 325.97 139.553 327.642 138.715C329.675 137.697 358.738 138.408 365.05 138.63C373.356 138.922 411.52 142.075 424.89 142.418Z" fill="url(#paint29_linear_2910_7510)"/>
<path d="M395.32 140.664C395.32 140.664 395.32 141.361 395.32 136.066L408.611 128.5C408.611 128.5 408.182 137.528 408.182 141.54C408.182 141.54 405.08 149.072 399.946 148.757C395.533 148.487 395.32 140.664 395.32 140.664Z" fill="url(#paint30_linear_2910_7510)"/>
<path d="M388.67 119.478C388.022 133.591 391.537 138.796 398.469 138.841C405.19 138.885 407.709 133.485 408.607 128.501C411.268 128.169 411.816 124.124 410.845 123.311C409.855 122.484 409.059 123.928 409.059 123.928C407.589 122.757 407.513 120.393 407.513 120.393C407.513 120.393 405.111 122.04 400.548 119.447C394.801 116.181 388.594 115.921 388.67 119.478Z" fill="#FFB2B0"/>
<path d="M400.305 126.268C400.305 126.963 400.693 127.526 401.173 127.526C401.653 127.526 402.041 126.963 402.041 126.268C402.041 125.574 401.653 125.011 401.173 125.011C400.693 125.011 400.305 125.574 400.305 126.268Z" fill="#45555E"/>
<path d="M402.905 124.214C402.905 124.214 401.381 122.986 399.672 123.88" stroke="#45555E" stroke-width="0.951796" stroke-miterlimit="10" stroke-linecap="round"/>
<path d="M391.389 126.268C391.389 126.963 391 127.526 390.52 127.526C390.041 127.526 389.652 126.963 389.652 126.268C389.652 125.574 390.041 125.011 390.52 125.011C391 125.011 391.389 125.574 391.389 126.268Z" fill="#45555E"/>
<path d="M388.789 124.214C388.789 124.214 390.312 122.986 392.022 123.88" stroke="#45555E" stroke-width="0.951796" stroke-miterlimit="10" stroke-linecap="round"/>
<path d="M395.253 124.214C395.253 124.214 395.626 127.168 394.562 128.232" stroke="#E88E8E" stroke-width="1.42769" stroke-miterlimit="10" stroke-linecap="round"/>
<path d="M319.969 119.11C319.969 119.11 319.426 110.452 327.272 107.906C335.107 105.363 343.136 109.135 344.409 115.42C345.682 121.706 343.645 121.278 350.519 123.723C357.392 126.168 356.884 129.229 355.611 134.073C354.338 138.918 355.611 139.067 360.957 140.714C366.304 142.361 370.249 151.796 360.194 154.473C350.138 157.151 332.917 150.42 332.917 150.42L319.969 119.11Z" fill="url(#paint31_linear_2910_7510)"/>
<path d="M292.377 160.534C292.377 160.534 281.477 148.007 289.575 144.226C296.386 141.046 299.808 156.036 299.808 156.036L292.377 160.534Z" fill="url(#paint32_linear_2910_7510)"/>
<path d="M357.842 180.491C357.842 180.491 356.436 190.07 358.703 199.794C359.069 201.363 358.077 202.926 356.5 203.245C347.889 204.988 323.128 205.738 314.444 204.73C312.801 204.539 311.587 203.112 311.672 201.458C311.672 201.458 312.083 193.187 312.187 185.915C312.187 185.915 308.625 187.094 304.321 184.535C300.647 182.351 289.098 162.062 289.864 157.79C290.285 155.446 295.883 151.779 298.877 153.23C301.311 154.41 305.634 162.738 306.093 162.613C307.661 157.121 309.141 149.486 313.084 145.39C318.06 140.22 347.268 137.529 355.599 143.783C363.849 149.977 378.382 176.727 365.223 180.887C362.003 181.904 357.842 180.491 357.842 180.491Z" fill="url(#paint33_linear_2910_7510)"/>
<path d="M326.445 141.19C326.445 141.19 326.445 140.425 326.445 135.266L339.391 127.897C339.391 127.897 338.975 136.64 338.975 140.548C338.975 140.548 332.153 153.553 329.389 153.53C327.676 153.516 326.445 141.19 326.445 141.19Z" fill="url(#paint34_linear_2910_7510)"/>
<path d="M338.009 119.517C338.009 119.517 338.401 122.304 339.832 123.445C339.832 123.445 340.608 122.039 341.571 122.844C342.517 123.635 341.983 127.575 339.392 127.898C338.518 132.754 336.063 138.014 329.518 137.971C322.766 137.926 319.342 132.856 319.972 119.109C319.972 119.109 322.784 119.247 326.194 116.276C326.194 116.276 329.373 120.104 338.009 119.517Z" fill="#FFB2B0"/>
<path d="M331.309 125.725C331.309 126.401 331.687 126.95 332.154 126.95C332.621 126.95 332.999 126.401 332.999 125.725C332.999 125.048 332.621 124.5 332.154 124.5C331.687 124.5 331.309 125.048 331.309 125.725Z" fill="#45555E"/>
<path d="M333.845 123.724C333.845 123.724 332.361 122.528 330.695 123.398" stroke="#45555E" stroke-width="0.951796" stroke-miterlimit="10" stroke-linecap="round"/>
<path d="M322.621 125.725C322.621 126.401 322.242 126.95 321.775 126.95C321.308 126.95 320.93 126.401 320.93 125.725C320.93 125.048 321.308 124.5 321.775 124.5C322.242 124.5 322.621 125.048 322.621 125.725Z" fill="#45555E"/>
<path d="M320.086 123.724C320.086 123.724 321.57 122.528 323.236 123.398" stroke="#45555E" stroke-width="0.951796" stroke-miterlimit="10" stroke-linecap="round"/>
<path d="M325.86 123.402C325.86 123.402 326.223 126.279 325.188 127.316" stroke="#E59898" stroke-width="1.42769" stroke-miterlimit="10" stroke-linecap="round"/>
<path d="M325.751 131.766C327.523 131.846 327.599 130.302 327.387 129.93C327.151 129.511 326.657 129.253 325.827 129.176C324.683 129.071 324.121 129.406 323.987 129.852C323.865 130.255 323.988 131.686 325.751 131.766Z" fill="#702F2F"/>
<path d="M325.188 131.68C325.354 131.725 325.541 131.756 325.753 131.766C326.598 131.804 327.05 131.47 327.277 131.072C327.055 130.839 326.75 130.671 326.268 130.749C325.519 130.871 325.242 131.33 325.188 131.68Z" fill="#FF5C5C"/>
<path d="M352.517 160.028C352.793 159.867 353.897 161.252 354.982 163.121C356.066 164.99 356.72 166.636 356.443 166.798C356.166 166.958 355.063 165.574 353.978 163.705C352.894 161.836 352.239 160.189 352.517 160.028Z" fill="#4F9BA8"/>
<path d="M310.78 171.752C310.501 171.909 309.224 169.986 307.93 167.455C306.635 164.924 305.817 162.757 306.104 162.614C306.391 162.472 307.668 164.395 308.955 166.911C310.242 169.426 311.058 171.594 310.78 171.752Z" fill="#4F9BA8"/>
<path d="M315.798 152.159C315.85 152.219 315.56 152.624 315.004 153.286C314.723 153.615 314.475 154.092 314.128 154.588C313.962 154.842 313.846 155.153 313.688 155.457C313.531 155.763 313.371 156.089 313.264 156.458C312.719 157.883 312.389 159.698 312.374 161.738C312.345 163.78 312.607 166.032 312.953 168.409C313.122 169.602 313.301 170.772 313.376 171.95C313.435 173.154 313.36 174.222 313.322 175.281C313.222 177.377 313.075 179.256 312.932 180.833C312.641 183.986 312.348 185.926 312.19 185.915C312.029 185.904 312.032 183.944 312.113 180.785C312.153 179.206 312.201 177.329 312.253 175.246C312.264 174.216 312.312 173.088 312.241 172.02C312.157 170.931 311.975 169.769 311.804 168.575C311.457 166.183 311.214 163.849 311.304 161.709C311.38 159.57 311.819 157.634 312.504 156.148C312.646 155.764 312.841 155.426 313.035 155.112C313.23 154.8 313.382 154.488 313.585 154.234C314.003 153.74 314.322 153.282 314.667 152.986C315.351 152.389 315.746 152.098 315.798 152.159Z" fill="#4F9BA8"/>
<path d="M334.28 154.43L333.406 154.282L334.929 145.297L338.504 142.479L339.053 143.175L335.745 145.782L334.28 154.43Z" fill="url(#paint35_linear_2910_7510)"/>
<path d="M338.506 171.751H329.179L327.406 152.926H340.279L338.506 171.751Z" fill="url(#paint36_linear_2910_7510)"/>
<path d="M338.506 171.751H329.179L327.406 152.926H340.279L338.506 171.751Z" fill="url(#paint37_linear_2910_7510)"/>
<path opacity="0.37" d="M337.335 160.686C337.335 162.618 335.771 164.184 333.843 164.184C331.915 164.184 330.352 162.618 330.352 160.686C330.352 158.755 331.915 157.189 333.843 157.189C335.771 157.189 337.335 158.755 337.335 160.686Z" fill="white"/>
<path d="M340.811 152.152H326.875V153.565H340.811V152.152Z" fill="white"/>
<path d="M343.029 171.233C343.029 171.233 327.941 167.852 331.94 160.536C335.303 154.383 346.131 163.747 346.131 163.747L343.029 171.233Z" fill="url(#paint38_linear_2910_7510)"/>
<path d="M357.841 180.491C357.841 180.491 345.78 176.449 340.766 171.233C339.319 168.915 343.841 161.717 345.529 161.984C347.508 162.296 357.796 167.12 362.573 169.558" fill="url(#paint39_linear_2910_7510)"/>
<path d="M362.578 169.556C362.504 169.701 359.983 168.565 355.896 166.761C353.853 165.862 351.421 164.781 348.698 163.674C348.019 163.398 347.317 163.125 346.604 162.876C346.255 162.759 345.877 162.627 345.561 162.566L345.445 162.54C345.438 162.545 345.433 162.545 345.426 162.541C345.391 162.555 345.355 162.551 345.294 162.583C345.184 162.622 345.044 162.717 344.91 162.812C343.811 163.712 342.874 165.141 342.13 166.584C341.762 167.318 341.451 168.072 341.252 168.82C341.058 169.55 340.971 170.351 341.206 170.833C341.253 170.916 341.194 170.848 341.273 170.926L341.481 171.125L341.896 171.522C342.16 171.795 342.471 172.022 342.759 172.264C343.327 172.757 343.954 173.166 344.537 173.596C346.956 175.217 349.311 176.438 351.304 177.416C355.313 179.347 357.902 180.328 357.846 180.489C357.8 180.632 355.105 179.924 350.964 178.163C348.902 177.269 346.474 176.11 343.944 174.487C343.328 174.053 342.676 173.641 342.066 173.129C341.758 172.877 341.431 172.645 341.141 172.354L340.691 171.932L340.465 171.72C340.439 171.69 340.355 171.631 340.301 171.551L340.186 171.331C339.739 170.32 339.944 169.384 340.138 168.529C340.363 167.667 340.7 166.853 341.096 166.062C341.495 165.272 341.948 164.525 342.452 163.824C342.97 163.127 343.501 162.46 344.232 161.9C344.428 161.765 344.619 161.629 344.884 161.529C345.003 161.474 345.167 161.44 345.325 161.417C345.418 161.414 345.511 161.417 345.603 161.424C345.674 161.434 345.718 161.449 345.776 161.462C346.234 161.559 346.592 161.698 346.975 161.829C347.719 162.102 348.425 162.391 349.108 162.685C351.841 163.859 354.239 165.02 356.246 166.017C360.253 168.017 362.649 169.417 362.578 169.556Z" fill="#4F9BA8"/>
<path d="M394.575 132.299C396.871 132.389 397.202 130.702 396.929 130.282C396.623 129.811 395.5 130.226 394.476 130.239C392.988 130.258 392.522 129.674 392.214 130.008C391.874 130.377 392.29 132.209 394.575 132.299Z" fill="#702F2F"/>
<path d="M395.016 131.032C395.883 130.67 396.571 131.03 396.861 131.231C396.594 131.788 395.926 132.352 394.574 132.298C394.349 132.289 394.155 132.251 393.965 132.211C394.039 131.872 394.273 131.342 395.016 131.032Z" fill="#FF5C5C"/>
<path d="M256.239 199.71C255.911 199.856 255.563 199.558 255.352 199.292C254.726 198.498 254.126 197.65 253.946 196.693C253.765 195.736 254.097 194.642 255.007 194.11C255.917 193.578 257.393 193.897 257.696 194.83C257.641 193.716 258.151 192.592 259.057 191.825C259.36 191.568 259.773 191.339 260.173 191.447C260.746 191.603 261.152 192.393 261.68 192.142C260.455 190.216 260.895 187.567 262.695 186.042C263.171 185.638 263.755 185.301 264.408 185.236C265.06 185.172 265.783 185.436 266.062 185.967C265.981 184.385 265.965 182.716 266.821 181.33C267.677 179.943 269.709 179.008 271.281 179.741C272.452 180.287 272.971 181.505 273.455 182.602C273.517 182.743 273.588 182.892 273.728 182.976C273.952 183.108 274.249 183.026 274.499 182.94C276.087 182.389 277.936 181.806 279.411 182.567C280.866 183.316 281.249 185.054 281.091 186.547C282.403 186.023 284.019 185.783 285.222 186.487C286.214 187.067 286.687 188.175 286.713 189.233C286.738 190.291 286.382 191.323 286.029 192.334C286.751 192.173 287.554 192.471 287.997 193.006C288.44 193.541 288.534 194.272 288.314 194.907C288.246 195.102 288.155 195.331 288.289 195.498C288.411 195.649 288.65 195.662 288.856 195.691C290.205 195.879 290.928 197.264 290.948 198.483C290.975 200.096 290.151 201.704 288.766 202.74L256.239 199.71Z" fill="#FFE7DE"/>
<path d="M287.339 230.24H258.273L253.43 197.918H292.182L287.339 230.24Z" fill="white"/>
<path d="M265.874 230.24H270.419V197.918H261.031L265.874 230.24Z" fill="url(#paint40_linear_2910_7510)"/>
<path d="M284.575 197.918H275.188V230.24H279.731L284.575 197.918Z" fill="url(#paint41_linear_2910_7510)"/>
<path d="M256.211 197.918H253.43L258.273 230.24H261.054L256.211 197.918Z" fill="url(#paint42_linear_2910_7510)"/>
<path d="M289.398 197.918L284.555 230.24H287.336L292.179 197.918H289.398Z" fill="url(#paint43_linear_2910_7510)"/>
<path d="M266.529 295.276C267.428 282.388 271.77 268.469 271.77 268.469L255.704 266.636C255.704 266.636 253.981 282.674 255.497 295.239L241.544 299.886C238.539 300.887 239.271 305.335 242.437 305.318L262.924 305.216C264.627 305.207 266.031 303.873 266.13 302.17L266.529 295.276Z" fill="url(#paint44_linear_2910_7510)"/>
<path d="M266.532 295.275C260.638 298.227 255.501 295.238 255.501 295.238L241.548 299.886C238.543 300.886 239.275 305.334 242.441 305.318L262.927 305.215C264.631 305.207 266.035 303.872 266.134 302.169L266.532 295.275Z" fill="url(#paint45_linear_2910_7510)"/>
<path d="M301.348 295.275C302.248 282.387 306.59 268.468 306.59 268.468L290.523 266.635C290.523 266.635 288.8 282.673 290.317 295.238L276.365 299.885C273.36 300.886 274.091 305.334 277.257 305.317L297.744 305.215C299.448 305.206 300.852 303.872 300.95 302.169L301.348 295.275Z" fill="url(#paint46_linear_2910_7510)"/>
<path d="M301.348 295.275C295.454 298.226 290.317 295.238 290.317 295.238L276.365 299.885C273.36 300.886 274.091 305.334 277.257 305.317L297.744 305.215C299.448 305.206 300.852 303.872 300.95 302.169L301.348 295.275Z" fill="url(#paint47_linear_2910_7510)"/>
<path d="M312.218 203.384C312.218 203.384 278.542 212.232 267.007 228.641C258.294 241.034 254.732 257.864 253.49 265.557C253.125 267.814 254.697 269.922 256.962 270.203L269.382 271.74C271.32 271.98 273.157 270.795 273.725 268.923C275.525 262.986 279.823 250.59 285.387 246.426C304.944 231.789 358.659 232.92 358.657 200.261L312.218 203.384Z" fill="url(#paint48_linear_2910_7510)"/>
<path d="M358.885 201.762C358.885 201.762 362.301 212.233 355.542 220.437C346.146 231.842 323.945 227.242 315.856 242.063C310.303 252.235 308.238 264.862 307.527 270.953C307.287 273.01 305.535 274.547 303.468 274.511L291.371 274.303C289.11 274.264 287.325 272.369 287.426 270.106C287.785 262.089 289.03 243.964 293.188 229.873C297.598 214.927 319.987 203.807 319.987 203.807L358.885 201.762Z" fill="url(#paint49_linear_2910_7510)"/>
<path d="M314.833 206.737C314.908 206.886 312.604 208.168 309.067 210.522C307.304 211.705 305.237 213.161 303.076 214.931C300.922 216.701 298.656 218.804 296.781 221.368C294.902 223.925 293.748 226.793 292.905 229.44C292.065 232.099 291.545 234.573 291.177 236.661C290.455 240.846 290.31 243.486 290.142 243.48C289.99 243.481 289.843 240.812 290.366 236.54C290.635 234.408 291.077 231.873 291.883 229.127C292.692 226.395 293.854 223.397 295.842 220.686C297.819 217.986 300.173 215.857 302.407 214.097C304.648 212.337 306.791 210.934 308.628 209.828C312.313 207.629 314.766 206.598 314.833 206.737Z" fill="#FC6120"/>
<path d="M306.746 286.273L311.14 278.397L321.001 284.531L314.768 292.552L310.234 297.754C309.114 299.039 307.188 299.232 305.837 298.193L290.26 286.219C287.748 284.288 289.892 280.325 292.879 281.379L306.746 286.273Z" fill="#C17474"/>
<path d="M314.768 292.551C308.304 291.265 306.747 286.273 306.747 286.273L292.879 281.378C289.892 280.324 287.748 284.287 290.26 286.217L305.837 298.191C307.188 299.23 309.114 299.038 310.234 297.753L314.768 292.551Z" fill="url(#paint50_linear_2910_7510)"/>
<path d="M341.66 291.649L343.639 282.848L354.834 285.923L351.131 295.387L348.26 301.665C347.551 303.217 345.759 303.948 344.168 303.337L325.837 296.287C322.881 295.15 323.813 290.741 326.975 290.901L341.66 291.649Z" fill="#C17474"/>
<path d="M351.131 295.388C344.569 295.994 341.66 291.65 341.66 291.65L326.975 290.903C323.813 290.742 322.881 295.152 325.837 296.288L344.168 303.338C345.759 303.95 347.551 303.218 348.26 301.666L351.131 295.388Z" fill="url(#paint51_linear_2910_7510)"/>
<path d="M380.015 204.536C380.015 204.536 343.326 222.915 335.71 231.838C326.301 242.862 312.537 270.235 307.846 279.819C306.877 281.796 307.389 284.178 309.081 285.585L313.545 289.293C315.62 291.018 318.708 290.678 320.353 288.536C328.12 278.423 348.57 252.007 352.841 248.609C371.96 233.402 426.663 236.829 426.346 200.26L380.015 204.536Z" fill="url(#paint52_linear_2910_7510)"/>
<path d="M429.759 202.125C429.759 202.125 433.084 214.175 427.768 223.072C420.187 235.76 390.559 227.611 380.911 244.064C376.572 251.463 360.853 279.798 355.604 290.207C354.526 292.344 352.012 293.314 349.78 292.458L343.667 290.113C341.457 289.266 340.232 286.9 340.818 284.604C343.661 273.476 351.659 242.599 354.833 234.761C358.151 226.568 387.678 203.807 387.678 203.807L429.759 202.125Z" fill="url(#paint53_linear_2910_7510)"/>
<path d="M385.734 207.656C385.774 207.726 385.09 208.195 383.838 209.008C382.582 209.822 380.772 210.994 378.535 212.444C376.306 213.908 373.667 215.671 370.811 217.726C367.965 219.788 364.87 222.126 361.947 224.898C361.586 225.247 361.226 225.594 360.869 225.94C360.535 226.303 360.204 226.665 359.875 227.023L359.385 227.561C359.233 227.743 359.106 227.936 358.966 228.123L358.557 228.683L358.198 229.288C357.239 230.895 356.48 232.578 355.802 234.193C354.447 237.43 353.404 240.433 352.544 242.958C351.708 245.491 351.031 247.541 350.561 248.963C350.091 250.382 349.81 251.163 349.732 251.142C349.655 251.122 349.789 250.302 350.127 248.842C350.465 247.381 351.004 245.281 351.763 242.709C352.527 240.14 353.494 237.094 354.814 233.785C355.477 232.132 356.224 230.411 357.223 228.705L357.598 228.061L358.044 227.438C358.197 227.233 358.342 227.014 358.503 226.819L359.01 226.257C359.351 225.883 359.694 225.506 360.041 225.128C360.407 224.773 360.776 224.416 361.147 224.056C364.145 221.215 367.289 218.885 370.193 216.853C373.105 214.829 375.805 213.129 378.098 211.749C380.393 210.37 382.284 209.312 383.61 208.618C384.936 207.923 385.695 207.585 385.734 207.656Z" fill="#4185CD"/>
<path d="M380.02 204.537C382.945 206.824 427.012 205.882 429.395 202.992C430.021 202.019 430.062 194.214 429.915 185.915H380.128C379.884 189.258 378.964 202.886 380.02 204.537Z" fill="url(#paint54_linear_2910_7510)"/>
<path d="M409.046 183.305L408.172 183.157L409.694 174.171L413.27 171.353L413.819 172.05L410.511 174.657L409.046 183.305Z" fill="url(#paint55_linear_2910_7510)"/>
<path d="M413.275 200.625H403.949L402.176 181.801H415.048L413.275 200.625Z" fill="url(#paint56_linear_2910_7510)"/>
<path opacity="0.37" d="M412.1 189.561C412.1 191.493 410.537 193.059 408.609 193.059C406.681 193.059 405.117 191.493 405.117 189.561C405.117 187.63 406.681 186.064 408.609 186.064C410.537 186.064 412.1 187.63 412.1 189.561Z" fill="white"/>
<path d="M415.577 181.027H401.641V182.44H415.577V181.027Z" fill="white"/>
<path d="M459.851 143.784C473.389 143.784 478.581 143.784 478.581 143.784L484.363 268.653C484.363 278.715 476.219 286.872 466.173 286.872H398.828C385.525 286.872 375.326 275.036 377.269 261.854L384.377 213.663C385.521 205.905 392.366 200.288 400.186 200.692H418.916L441.956 202.849L448.328 153.92C449.082 148.121 454.014 143.784 459.851 143.784Z" fill="url(#paint57_linear_2910_7510)"/>
<path d="M478.578 143.784C492.115 143.784 503.089 154.775 503.089 168.335V268.653C503.089 278.715 494.946 286.872 484.9 286.872H417.555C404.251 286.872 394.052 275.036 395.996 261.854L403.103 213.663C404.247 205.905 411.093 200.288 418.913 200.692L429.696 201.249L442.078 201.887L448.739 202.232C455.481 202.58 461.355 197.675 462.229 190.972L467.053 153.92C467.809 148.121 472.74 143.784 478.578 143.784Z" fill="url(#paint58_linear_2910_7510)"/>
<path d="M410.779 202.572C410.857 202.701 409.704 203.332 408.074 204.948C407.272 205.763 406.366 206.839 405.568 208.239C404.779 209.638 404.087 211.36 403.787 213.351C402.701 221.62 401.124 233.106 399.255 245.738C398.783 248.897 398.322 251.982 397.877 254.961C397.65 256.45 397.427 257.912 397.209 259.344C396.987 260.777 396.755 262.189 396.636 263.498C396.159 268.846 397.843 273.656 400.094 277.013C401.226 278.699 402.43 280.12 403.651 281.194C404.232 281.765 404.858 282.196 405.388 282.653C405.964 283.049 406.491 283.41 406.966 283.736C407.463 284.029 407.906 284.288 408.289 284.514C408.672 284.742 409.021 284.888 409.288 285.038C409.83 285.325 410.109 285.504 410.088 285.56C410.068 285.616 409.749 285.547 409.154 285.362C408.86 285.263 408.482 285.164 408.065 284.981C407.649 284.791 407.17 284.572 406.631 284.325C406.109 284.043 405.541 283.703 404.915 283.335C404.334 282.903 403.653 282.491 403.015 281.93C401.679 280.878 400.343 279.448 399.08 277.71C397.83 275.963 396.707 273.849 395.958 271.415C395.206 268.986 394.838 266.24 395.038 263.376C395.15 261.925 395.363 260.533 395.566 259.1C395.77 257.665 395.98 256.201 396.192 254.71C396.625 251.729 397.075 248.642 397.534 245.482C399.405 232.835 401.167 221.426 402.576 213.136C402.982 210.992 403.814 209.173 404.738 207.732C405.67 206.289 406.706 205.221 407.616 204.447C409.466 202.917 410.744 202.493 410.779 202.572Z" fill="#142954"/>
<path d="M471.952 145.863C472.037 145.979 471.25 146.557 470.186 147.879C469.137 149.19 467.852 151.36 467.619 154.37C466.971 160.567 465.956 169.113 464.729 178.54C464.416 180.896 464.11 183.195 463.815 185.416C463.664 186.526 463.514 187.617 463.368 188.685C463.294 189.219 463.22 189.746 463.148 190.269C463.111 190.53 463.076 190.79 463.039 191.048C462.988 191.319 462.938 191.588 462.888 191.857C462.479 194.008 461.542 195.921 460.358 197.445C459.178 198.978 457.766 200.136 456.349 200.936C453.486 202.552 450.747 202.73 448.992 202.571C447.246 202.401 446.302 202.219 446.305 202.105C446.308 201.979 447.284 201.933 449.013 201.892C450.691 201.843 453.194 201.478 455.717 199.879C456.967 199.087 458.194 197.989 459.2 196.583C460.212 195.185 460.993 193.468 461.312 191.559C461.832 187.487 462.403 183.012 463.003 178.314C464.231 168.888 465.439 160.367 466.399 154.211C466.607 152.622 467.112 151.18 467.725 150.055C468.338 148.918 469.044 148.055 469.682 147.426C470.972 146.168 471.903 145.782 471.952 145.863Z" fill="#142954"/>
<path d="M418.482 88.3058H286.539V35.3091H418.482V88.3058ZM292.093 82.7426H412.928V40.8722H292.093V82.7426Z" fill="#FF8C59"/>
<path d="M412.929 40.8721H292.094V82.7425H412.929V40.8721Z" fill="#FFE7DE"/>
<path d="M33.8243 253.652L27.5547 265.686" stroke="#5F729B" stroke-width="2.85539" stroke-miterlimit="10"/>
<path d="M38.9297 253.652L45.1993 265.686" stroke="#5F729B" stroke-width="2.85539" stroke-miterlimit="10"/>
<path d="M160.313 253.652L154.043 265.686" stroke="#5F729B" stroke-width="2.85539" stroke-miterlimit="10"/>
<path d="M165.414 253.652L171.685 265.686" stroke="#5F729B" stroke-width="2.85539" stroke-miterlimit="10"/>
<path d="M184.864 254.92H23.5227C19.4456 254.92 16.1406 251.61 16.1406 247.526V137.308C16.1406 133.225 19.4456 129.915 23.5227 129.915H184.864C188.941 129.915 192.246 133.225 192.246 137.308V247.526C192.246 251.61 188.941 254.92 184.864 254.92Z" fill="url(#paint59_linear_2910_7510)"/>
<path d="M180.29 254.92H18.9484C14.8714 254.92 11.5664 251.61 11.5664 247.526V137.308C11.5664 133.225 14.8714 129.915 18.9484 129.915H180.29C184.367 129.915 187.672 133.225 187.672 137.308V247.526C187.672 251.61 184.367 254.92 180.29 254.92Z" fill="url(#paint60_linear_2910_7510)"/>
<path opacity="0.69" d="M138.216 220.792H61.0194C56.6875 220.792 53.1758 217.274 53.1758 212.936V171.901C53.1758 167.562 56.6875 164.044 61.0194 164.044H138.216C142.548 164.044 146.06 167.562 146.06 171.901V212.936C146.06 217.274 142.548 220.792 138.216 220.792Z" fill="#5F729B"/>
<path d="M144.065 235.818H55.1694C54.0683 235.818 53.1758 234.924 53.1758 233.822V233.735C53.1758 232.632 54.0683 231.738 55.1694 231.738H144.065C145.166 231.738 146.059 232.632 146.059 233.735V233.822C146.06 234.924 145.166 235.818 144.065 235.818Z" fill="#5F729B"/>
<path d="M153.435 195.835H152.837C152.06 195.835 151.43 195.204 151.43 194.425V193.827C151.43 193.048 152.06 192.418 152.837 192.418H153.435C154.212 192.418 154.842 193.049 154.842 193.827V194.425C154.841 195.204 154.211 195.835 153.435 195.835Z" fill="#5F729B"/>
<path d="M153.435 205.378H152.837C152.06 205.378 151.43 204.747 151.43 203.969V203.37C151.43 202.591 152.06 201.96 152.837 201.96H153.435C154.212 201.96 154.842 202.591 154.842 203.37V203.969C154.841 204.747 154.211 205.378 153.435 205.378Z" fill="#5F729B"/>
<path d="M153.435 214.92H152.837C152.06 214.92 151.43 214.289 151.43 213.512V212.912C151.43 212.133 152.06 211.503 152.837 211.503H153.435C154.212 211.503 154.842 212.134 154.842 212.912V213.512C154.841 214.289 154.211 214.92 153.435 214.92Z" fill="#5F729B"/>
<path d="M198.785 319.953H19.6045C16.8239 319.953 14.5703 317.696 14.5703 314.911V269.461C14.5703 266.676 16.8239 264.418 19.6045 264.418H198.784C201.564 264.418 203.818 266.676 203.818 269.461V314.911C203.819 317.696 201.564 319.953 198.785 319.953Z" fill="url(#paint61_linear_2910_7510)"/>
<path d="M184.213 319.953H5.0342C2.25361 319.953 0 317.696 0 314.911V269.461C0 266.676 2.25448 264.418 5.0342 264.418H184.213C186.994 264.418 189.248 266.676 189.248 269.461V314.911C189.248 317.696 186.994 319.953 184.213 319.953Z" fill="url(#paint62_linear_2910_7510)"/>
<defs>
<linearGradient id="paint0_linear_2910_7510" x1="502.616" y1="202.426" x2="502.616" y2="67.0383" gradientUnits="userSpaceOnUse">
<stop stop-color="#FFF3ED"/>
<stop offset="1" stop-color="#FBD6C8"/>
</linearGradient>
<linearGradient id="paint1_linear_2910_7510" x1="59.9517" y1="202.426" x2="59.9517" y2="67.0375" gradientUnits="userSpaceOnUse">
<stop stop-color="#FFF3ED"/>
<stop offset="1" stop-color="#FBD6C8"/>
</linearGradient>
<linearGradient id="paint2_linear_2910_7510" x1="170.615" y1="202.426" x2="170.615" y2="67.0383" gradientUnits="userSpaceOnUse">
<stop stop-color="#FFF3ED"/>
<stop offset="1" stop-color="#FBD6C8"/>
</linearGradient>
<linearGradient id="paint3_linear_2910_7510" x1="281.279" y1="202.426" x2="281.279" y2="67.0383" gradientUnits="userSpaceOnUse">
<stop stop-color="#FFF3ED"/>
<stop offset="1" stop-color="#FBD6C8"/>
</linearGradient>
<linearGradient id="paint4_linear_2910_7510" x1="391.951" y1="202.426" x2="391.951" y2="67.0383" gradientUnits="userSpaceOnUse">
<stop stop-color="#FFF3ED"/>
<stop offset="1" stop-color="#FBD6C8"/>
</linearGradient>
<linearGradient id="paint5_linear_2910_7510" x1="164.689" y1="126.605" x2="164.689" y2="29.6789" gradientUnits="userSpaceOnUse">
<stop stop-color="#7FCCB8"/>
<stop offset="1" stop-color="#ABEDDD"/>
</linearGradient>
<linearGradient id="paint6_linear_2910_7510" x1="173.228" y1="123.864" x2="133.335" y2="106.333" gradientUnits="userSpaceOnUse">
<stop stop-color="#FDC5AC"/>
<stop offset="0.442308" stop-color="#F3E3E4"/>
<stop offset="1" stop-color="#C3DDF8"/>
</linearGradient>
<linearGradient id="paint7_linear_2910_7510" x1="198.068" y1="143.523" x2="155.029" y2="104.841" gradientUnits="userSpaceOnUse">
<stop stop-color="#FDC5AC"/>
<stop offset="0.442308" stop-color="#F3E3E4"/>
<stop offset="1" stop-color="#C3DDF8"/>
</linearGradient>
<linearGradient id="paint8_linear_2910_7510" x1="216.332" y1="166.739" x2="194.309" y2="118.217" gradientUnits="userSpaceOnUse">
<stop stop-color="#FDC5AC"/>
<stop offset="0.442308" stop-color="#F3E3E4"/>
<stop offset="1" stop-color="#C3DDF8"/>
</linearGradient>
<linearGradient id="paint9_linear_2910_7510" x1="216.644" y1="193.171" x2="202.358" y2="150.792" gradientUnits="userSpaceOnUse">
<stop stop-color="#FDC5AC"/>
<stop offset="0.442308" stop-color="#F3E3E4"/>
<stop offset="1" stop-color="#C3DDF8"/>
</linearGradient>
<linearGradient id="paint10_linear_2910_7510" x1="179.233" y1="197.842" x2="93.1003" y2="157.57" gradientUnits="userSpaceOnUse">
<stop stop-color="#7FCCB8"/>
<stop offset="1" stop-color="#ABEDDD"/>
</linearGradient>
<linearGradient id="paint11_linear_2910_7510" x1="159.216" y1="143.523" x2="116.177" y2="104.841" gradientUnits="userSpaceOnUse">
<stop stop-color="#FDC5AC"/>
<stop offset="0.442308" stop-color="#F3E3E4"/>
<stop offset="1" stop-color="#C3DDF8"/>
</linearGradient>
<linearGradient id="paint12_linear_2910_7510" x1="159.301" y1="166.739" x2="137.278" y2="118.217" gradientUnits="userSpaceOnUse">
<stop stop-color="#FDC5AC"/>
<stop offset="0.442308" stop-color="#F3E3E4"/>
<stop offset="1" stop-color="#C3DDF8"/>
</linearGradient>
<linearGradient id="paint13_linear_2910_7510" x1="201.755" y1="285.873" x2="201.755" y2="153.08" gradientUnits="userSpaceOnUse">
<stop stop-color="#56A6F9"/>
<stop offset="1" stop-color="#0A2B58"/>
</linearGradient>
<linearGradient id="paint14_linear_2910_7510" x1="240.82" y1="231.026" x2="144.231" y2="159.886" gradientUnits="userSpaceOnUse">
<stop stop-color="#104B80"/>
<stop offset="1" stop-color="#32B2F9"/>
</linearGradient>
<linearGradient id="paint15_linear_2910_7510" x1="368.463" y1="285.437" x2="368.463" y2="153.052" gradientUnits="userSpaceOnUse">
<stop stop-color="#56A6F9"/>
<stop offset="1" stop-color="#0A2B58"/>
</linearGradient>
<linearGradient id="paint16_linear_2910_7510" x1="338.398" y1="286.454" x2="338.398" y2="231.116" gradientUnits="userSpaceOnUse">
<stop stop-color="#56A6F9"/>
<stop offset="1" stop-color="#0A2B58"/>
</linearGradient>
<linearGradient id="paint17_linear_2910_7510" x1="257.652" y1="127.121" x2="257.652" y2="102.53" gradientUnits="userSpaceOnUse">
<stop stop-color="#FD5E1C"/>
<stop offset="0.8313" stop-color="#FBB595"/>
</linearGradient>
<linearGradient id="paint18_linear_2910_7510" x1="169.353" y1="296.106" x2="147.665" y2="281.762" gradientUnits="userSpaceOnUse">
<stop stop-color="#104B80"/>
<stop offset="1" stop-color="#32B2F9"/>
</linearGradient>
<linearGradient id="paint19_linear_2910_7510" x1="230.106" y1="300.358" x2="196.431" y2="300.22" gradientUnits="userSpaceOnUse">
<stop stop-color="#104B80"/>
<stop offset="1" stop-color="#32B2F9"/>
</linearGradient>
<linearGradient id="paint20_linear_2910_7510" x1="224.072" y1="297.528" x2="224.072" y2="232.896" gradientUnits="userSpaceOnUse">
<stop stop-color="#F0F3F8"/>
<stop offset="0.2124" stop-color="#F0F3F8"/>
<stop offset="0.5119" stop-color="#DEEAFA"/>
<stop offset="0.8618" stop-color="#D0E4FC"/>
<stop offset="1" stop-color="#D0E1FA"/>
</linearGradient>
<linearGradient id="paint21_linear_2910_7510" x1="250.551" y1="300.34" x2="250.551" y2="235.078" gradientUnits="userSpaceOnUse">
<stop stop-color="#F0F3F8"/>
<stop offset="0.2124" stop-color="#F0F3F8"/>
<stop offset="0.5119" stop-color="#DEEAFA"/>
<stop offset="0.8618" stop-color="#D0E4FC"/>
<stop offset="1" stop-color="#D0E1FA"/>
</linearGradient>
<linearGradient id="paint22_linear_2910_7510" x1="275.059" y1="214.551" x2="269.699" y2="226.562" gradientUnits="userSpaceOnUse">
<stop stop-color="#634040"/>
<stop offset="1" stop-color="#C17474"/>
</linearGradient>
<linearGradient id="paint23_linear_2910_7510" x1="196.617" y1="196.518" x2="183.906" y2="197.23" gradientUnits="userSpaceOnUse">
<stop stop-color="#634040"/>
<stop offset="1" stop-color="#C17474"/>
</linearGradient>
<linearGradient id="paint24_linear_2910_7510" x1="244.48" y1="222.318" x2="244.48" y2="139.637" gradientUnits="userSpaceOnUse">
<stop stop-color="#FD5E1C"/>
<stop offset="0.8313" stop-color="#FBB595"/>
</linearGradient>
<linearGradient id="paint25_linear_2910_7510" x1="259.196" y1="129.616" x2="259.196" y2="142.3" gradientUnits="userSpaceOnUse">
<stop stop-color="#634040"/>
<stop offset="1" stop-color="#C17474"/>
</linearGradient>
<linearGradient id="paint26_linear_2910_7510" x1="401.395" y1="129.536" x2="401.395" y2="103.699" gradientUnits="userSpaceOnUse">
<stop stop-color="#FD5E1C"/>
<stop offset="0.8313" stop-color="#FBB595"/>
</linearGradient>
<linearGradient id="paint27_linear_2910_7510" x1="454.962" y1="118.238" x2="454.912" y2="107.875" gradientUnits="userSpaceOnUse">
<stop offset="0.00051978" stop-color="#E08080"/>
<stop offset="1" stop-color="#FFC0C0"/>
</linearGradient>
<linearGradient id="paint28_linear_2910_7510" x1="328.817" y1="143.48" x2="318.48" y2="143.931" gradientUnits="userSpaceOnUse">
<stop offset="0.00051978" stop-color="#E08080"/>
<stop offset="1" stop-color="#FFC0C0"/>
</linearGradient>
<linearGradient id="paint29_linear_2910_7510" x1="394.222" y1="210.941" x2="394.222" y2="114.595" gradientUnits="userSpaceOnUse">
<stop stop-color="#FD5E1C"/>
<stop offset="0.8313" stop-color="#FBB595"/>
</linearGradient>
<linearGradient id="paint30_linear_2910_7510" x1="401.965" y1="131.588" x2="401.965" y2="141.136" gradientUnits="userSpaceOnUse">
<stop offset="0.00051978" stop-color="#E08080"/>
<stop offset="1" stop-color="#FFC0C0"/>
</linearGradient>
<linearGradient id="paint31_linear_2910_7510" x1="342.7" y1="161.341" x2="343.307" y2="101.131" gradientUnits="userSpaceOnUse">
<stop stop-color="#FC5D1B"/>
<stop offset="0.7692" stop-color="#FFB89A"/>
</linearGradient>
<linearGradient id="paint32_linear_2910_7510" x1="295.186" y1="156.703" x2="289.018" y2="144.045" gradientUnits="userSpaceOnUse">
<stop offset="0.00051978" stop-color="#E08080"/>
<stop offset="1" stop-color="#FFC0C0"/>
</linearGradient>
<linearGradient id="paint33_linear_2910_7510" x1="341.007" y1="205.405" x2="323.439" y2="139.363" gradientUnits="userSpaceOnUse">
<stop stop-color="#CEE2FA"/>
<stop offset="1" stop-color="#F0F3F8"/>
</linearGradient>
<linearGradient id="paint34_linear_2910_7510" x1="332.918" y1="130.748" x2="332.918" y2="148.134" gradientUnits="userSpaceOnUse">
<stop offset="0.00051978" stop-color="#E08080"/>
<stop offset="1" stop-color="#FFC0C0"/>
</linearGradient>
<linearGradient id="paint35_linear_2910_7510" x1="336.229" y1="157.947" x2="336.229" y2="145.718" gradientUnits="userSpaceOnUse">
<stop stop-color="#C3A67E"/>
<stop offset="0.8685" stop-color="#FFF4E3"/>
</linearGradient>
<linearGradient id="paint36_linear_2910_7510" x1="333.842" y1="178.565" x2="333.842" y2="162.067" gradientUnits="userSpaceOnUse">
<stop stop-color="#993333"/>
<stop offset="1" stop-color="#FF6666"/>
</linearGradient>
<linearGradient id="paint37_linear_2910_7510" x1="333.843" y1="168.975" x2="333.843" y2="158.241" gradientUnits="userSpaceOnUse">
<stop stop-color="#FB5C19"/>
<stop offset="1" stop-color="#FF8046"/>
</linearGradient>
<linearGradient id="paint38_linear_2910_7510" x1="344.22" y1="168.141" x2="333.443" y2="161.139" gradientUnits="userSpaceOnUse">
<stop offset="0.00051978" stop-color="#E08080"/>
<stop offset="1" stop-color="#FFC0C0"/>
</linearGradient>
<linearGradient id="paint39_linear_2910_7510" x1="359.604" y1="200.457" x2="342.022" y2="134.365" gradientUnits="userSpaceOnUse">
<stop stop-color="#66ACB2"/>
<stop offset="1" stop-color="#9DEAE3"/>
</linearGradient>
<linearGradient id="paint40_linear_2910_7510" x1="265.725" y1="225.474" x2="265.725" y2="207.044" gradientUnits="userSpaceOnUse">
<stop stop-color="#FB5C19"/>
<stop offset="1" stop-color="#FF8046"/>
</linearGradient>
<linearGradient id="paint41_linear_2910_7510" x1="279.881" y1="225.474" x2="279.881" y2="207.044" gradientUnits="userSpaceOnUse">
<stop stop-color="#FB5C19"/>
<stop offset="1" stop-color="#FF8046"/>
</linearGradient>
<linearGradient id="paint42_linear_2910_7510" x1="257.242" y1="225.474" x2="257.242" y2="207.044" gradientUnits="userSpaceOnUse">
<stop stop-color="#FB5C19"/>
<stop offset="1" stop-color="#FF8046"/>
</linearGradient>
<linearGradient id="paint43_linear_2910_7510" x1="288.367" y1="225.474" x2="288.367" y2="207.044" gradientUnits="userSpaceOnUse">
<stop stop-color="#FB5C19"/>
<stop offset="1" stop-color="#FF8046"/>
</linearGradient>
<linearGradient id="paint44_linear_2910_7510" x1="258.433" y1="266.571" x2="254.148" y2="296.009" gradientUnits="userSpaceOnUse">
<stop offset="0.00051978" stop-color="#E08080"/>
<stop offset="1" stop-color="#FFC0C0"/>
</linearGradient>
<linearGradient id="paint45_linear_2910_7510" x1="270.05" y1="300.36" x2="235.273" y2="300.218" gradientUnits="userSpaceOnUse">
<stop stop-color="#BAD3DD"/>
<stop offset="1" stop-color="#FAFDFF"/>
</linearGradient>
<linearGradient id="paint46_linear_2910_7510" x1="293.147" y1="267.812" x2="289.89" y2="289.549" gradientUnits="userSpaceOnUse">
<stop offset="0.00051978" stop-color="#E08080"/>
<stop offset="1" stop-color="#FFC0C0"/>
</linearGradient>
<linearGradient id="paint47_linear_2910_7510" x1="304.866" y1="300.36" x2="270.09" y2="300.217" gradientUnits="userSpaceOnUse">
<stop stop-color="#BAD3DD"/>
<stop offset="1" stop-color="#FAFDFF"/>
</linearGradient>
<linearGradient id="paint48_linear_2910_7510" x1="306.047" y1="275.794" x2="306.047" y2="200.148" gradientUnits="userSpaceOnUse">
<stop stop-color="#FD5E1C"/>
<stop offset="0.8313" stop-color="#FBB595"/>
</linearGradient>
<linearGradient id="paint49_linear_2910_7510" x1="323.585" y1="278.605" x2="323.585" y2="201.647" gradientUnits="userSpaceOnUse">
<stop stop-color="#FD5E1C"/>
<stop offset="0.8313" stop-color="#FBB595"/>
</linearGradient>
<linearGradient id="paint50_linear_2910_7510" x1="312.123" y1="296.106" x2="290.434" y2="281.762" gradientUnits="userSpaceOnUse">
<stop stop-color="#104B80"/>
<stop offset="1" stop-color="#32B2F9"/>
</linearGradient>
<linearGradient id="paint51_linear_2910_7510" x1="352.46" y1="301.363" x2="321.123" y2="289.015" gradientUnits="userSpaceOnUse">
<stop stop-color="#104B80"/>
<stop offset="1" stop-color="#32B2F9"/>
</linearGradient>
<linearGradient id="paint52_linear_2910_7510" x1="366.851" y1="297.46" x2="366.851" y2="232.872" gradientUnits="userSpaceOnUse">
<stop stop-color="#F0F3F8"/>
<stop offset="0.2124" stop-color="#F0F3F8"/>
<stop offset="0.5119" stop-color="#DEEAFA"/>
<stop offset="0.8618" stop-color="#D0E4FC"/>
<stop offset="1" stop-color="#D0E1FA"/>
</linearGradient>
<linearGradient id="paint53_linear_2910_7510" x1="385.727" y1="299.874" x2="385.727" y2="234.922" gradientUnits="userSpaceOnUse">
<stop stop-color="#F0F3F8"/>
<stop offset="0.2124" stop-color="#F0F3F8"/>
<stop offset="0.5119" stop-color="#DEEAFA"/>
<stop offset="0.8618" stop-color="#D0E4FC"/>
<stop offset="1" stop-color="#D0E1FA"/>
</linearGradient>
<linearGradient id="paint54_linear_2910_7510" x1="404.754" y1="206.935" x2="404.754" y2="185.884" gradientUnits="userSpaceOnUse">
<stop stop-color="#FD5E1C"/>
<stop offset="0.8313" stop-color="#FBB595"/>
</linearGradient>
<linearGradient id="paint55_linear_2910_7510" x1="410.995" y1="186.822" x2="410.995" y2="174.593" gradientUnits="userSpaceOnUse">
<stop stop-color="#C3A67E"/>
<stop offset="0.8685" stop-color="#FFF4E3"/>
</linearGradient>
<linearGradient id="paint56_linear_2910_7510" x1="408.612" y1="202.1" x2="408.612" y2="188.612" gradientUnits="userSpaceOnUse">
<stop stop-color="#F0F3F8"/>
<stop offset="0.2124" stop-color="#F0F3F8"/>
<stop offset="0.5119" stop-color="#DEEAFA"/>
<stop offset="0.8618" stop-color="#D0E4FC"/>
<stop offset="1" stop-color="#D0E1FA"/>
</linearGradient>
<linearGradient id="paint57_linear_2910_7510" x1="430.697" y1="285.873" x2="430.697" y2="153.08" gradientUnits="userSpaceOnUse">
<stop stop-color="#56A6F9"/>
<stop offset="1" stop-color="#0A2B58"/>
</linearGradient>
<linearGradient id="paint58_linear_2910_7510" x1="449.423" y1="285.873" x2="449.423" y2="153.08" gradientUnits="userSpaceOnUse">
<stop stop-color="#56A6F9"/>
<stop offset="1" stop-color="#0A2B58"/>
</linearGradient>
<linearGradient id="paint59_linear_2910_7510" x1="104.193" y1="126.106" x2="104.193" y2="233.169" gradientUnits="userSpaceOnUse">
<stop stop-color="#5F729B"/>
<stop offset="1" stop-color="#9AAAD6"/>
</linearGradient>
<linearGradient id="paint60_linear_2910_7510" x1="69.6611" y1="263.778" x2="135.168" y2="108.244" gradientUnits="userSpaceOnUse">
<stop stop-color="#5F729B"/>
<stop offset="1" stop-color="#9AAAD6"/>
</linearGradient>
<linearGradient id="paint61_linear_2910_7510" x1="194.5" y1="320" x2="186.54" y2="271.042" gradientUnits="userSpaceOnUse">
<stop stop-color="#4A86CF"/>
<stop offset="1" stop-color="#A7CCF9"/>
</linearGradient>
<linearGradient id="paint62_linear_2910_7510" x1="160.209" y1="327.845" x2="139.148" y2="266.366" gradientUnits="userSpaceOnUse">
<stop stop-color="#4A86CF"/>
<stop offset="1" stop-color="#A7CCF9"/>
</linearGradient>
</defs>
</svg>
